<svg xmlns="http://www.w3.org/2000/svg" viewBox="0 0 1400 900" width="1400" height="900">
  <defs>
    <style>
      .title { font-family: system-ui, sans-serif; font-size: 20px; font-weight: 700; fill: #1a1a1a; }
      .subtitle { font-family: system-ui, sans-serif; font-size: 12px; fill: #666; }
      .section-title { font-family: system-ui, sans-serif; font-size: 14px; font-weight: 600; fill: #333; }
      .header-cell { fill: #f5f5f5; stroke: #333; stroke-width: 1; }
      .component-header { fill: #e3f2fd; stroke: #1976d2; stroke-width: 1; }
      .screen-header { fill: #e8f5e9; stroke: #4caf50; stroke-width: 1; }
      .cell-yes { fill: #4caf50; }
      .cell-no { fill: #f5f5f5; }
      .cell-variant { fill: #ff9800; }
      .cell-border { stroke: #ddd; stroke-width: 1; fill: none; }
      .label { font-family: system-ui, sans-serif; font-size: 9px; fill: #333; }
      .label-bold { font-family: system-ui, sans-serif; font-size: 9px; font-weight: 600; fill: #333; }
      .label-rotated { font-family: system-ui, sans-serif; font-size: 8px; fill: #333; }
      .count-high { font-family: system-ui, sans-serif; font-size: 11px; font-weight: 700; fill: #d32f2f; }
      .count-med { font-family: system-ui, sans-serif; font-size: 11px; font-weight: 600; fill: #ff9800; }
      .count-low { font-family: system-ui, sans-serif; font-size: 11px; fill: #4caf50; }
    </style>
  </defs>
  
  <!-- Title -->
  <text x="700" y="30" text-anchor="middle" class="title">Component Usage Matrix: Which Components Appear on Which Screens</text>
  <text x="700" y="50" text-anchor="middle" class="subtitle">Green = Used | Orange = Variant/Conditional | Gray = Not Used</text>
  
  <!-- Legend -->
  <g transform="translate(50, 70)">
    <rect x="0" y="0" width="16" height="16" class="cell-yes"/>
    <text x="24" y="12" class="label">Used</text>
    
    <rect x="80" y="0" width="16" height="16" class="cell-variant"/>
    <text x="104" y="12" class="label">Variant/Conditional</text>
    
    <rect x="220" y="0" width="16" height="16" class="cell-no" stroke="#ddd" stroke-width="1"/>
    <text x="244" y="12" class="label">Not Used</text>
    
    <text x="400" y="12" class="label-bold">Count = screens using this component</text>
  </g>
  
  <!-- Matrix -->
  <g transform="translate(50, 110)">
    <!-- Component headers (columns) -->
    <g transform="translate(180, 0)">
      <!-- GlobalHeader -->
      <rect x="0" y="0" width="50" height="80" class="component-header"/>
      <g transform="translate(25, 75) rotate(-60)">
        <text x="0" y="0" class="label-rotated">GlobalHeader</text>
      </g>
      
      <!-- BannerList -->
      <rect x="50" y="0" width="50" height="80" class="component-header"/>
      <g transform="translate(75, 75) rotate(-60)">
        <text x="0" y="0" class="label-rotated">BannerList</text>
      </g>
      
      <!-- HeroSlab -->
      <rect x="100" y="0" width="50" height="80" class="component-header"/>
      <g transform="translate(125, 75) rotate(-60)">
        <text x="0" y="0" class="label-rotated">HeroSlab</text>
      </g>
      
      <!-- ServicePageHeader -->
      <rect x="150" y="0" width="50" height="80" class="component-header"/>
      <g transform="translate(175, 75) rotate(-60)">
        <text x="0" y="0" class="label-rotated">ServicePageHdr</text>
      </g>
      
      <!-- HeroMediaHeader -->
      <rect x="200" y="0" width="50" height="80" class="component-header"/>
      <g transform="translate(225, 75) rotate(-60)">
        <text x="0" y="0" class="label-rotated">HeroMediaHdr</text>
      </g>
      
      <!-- Tab -->
      <rect x="250" y="0" width="50" height="80" class="component-header"/>
      <g transform="translate(275, 75) rotate(-60)">
        <text x="0" y="0" class="label-rotated">Tab</text>
      </g>
      
      <!-- Card -->
      <rect x="300" y="0" width="50" height="80" class="component-header"/>
      <g transform="translate(325, 75) rotate(-60)">
        <text x="0" y="0" class="label-rotated">Card</text>
      </g>
      
      <!-- Input -->
      <rect x="350" y="0" width="50" height="80" class="component-header"/>
      <g transform="translate(375, 75) rotate(-60)">
        <text x="0" y="0" class="label-rotated">Input</text>
      </g>
      
      <!-- Button -->
      <rect x="400" y="0" width="50" height="80" class="component-header"/>
      <g transform="translate(425, 75) rotate(-60)">
        <text x="0" y="0" class="label-rotated">Button</text>
      </g>
      
      <!-- Badge -->
      <rect x="450" y="0" width="50" height="80" class="component-header"/>
      <g transform="translate(475, 75) rotate(-60)">
        <text x="0" y="0" class="label-rotated">Badge</text>
      </g>
      
      <!-- CalendarGrid -->
      <rect x="500" y="0" width="50" height="80" class="component-header"/>
      <g transform="translate(525, 75) rotate(-60)">
        <text x="0" y="0" class="label-rotated">CalendarGrid</text>
      </g>
      
      <!-- LineCard -->
      <rect x="550" y="0" width="50" height="80" class="component-header"/>
      <g transform="translate(575, 75) rotate(-60)">
        <text x="0" y="0" class="label-rotated">LineCard</text>
      </g>
      
      <!-- EventCard -->
      <rect x="600" y="0" width="50" height="80" class="component-header"/>
      <g transform="translate(625, 75) rotate(-60)">
        <text x="0" y="0" class="label-rotated">EventCard</text>
      </g>
      
      <!-- MessageItem -->
      <rect x="650" y="0" width="50" height="80" class="component-header"/>
      <g transform="translate(675, 75) rotate(-60)">
        <text x="0" y="0" class="label-rotated">MessageItem</text>
      </g>
      
      <!-- SpeciesCard -->
      <rect x="700" y="0" width="50" height="80" class="component-header"/>
      <g transform="translate(725, 75) rotate(-60)">
        <text x="0" y="0" class="label-rotated">SpeciesCard</text>
      </g>
      
      <!-- DepartureItem -->
      <rect x="750" y="0" width="50" height="80" class="component-header"/>
      <g transform="translate(775, 75) rotate(-60)">
        <text x="0" y="0" class="label-rotated">DepartureItem</text>
      </g>
      
      <!-- PhotoSlot -->
      <rect x="800" y="0" width="50" height="80" class="component-header"/>
      <g transform="translate(825, 75) rotate(-60)">
        <text x="0" y="0" class="label-rotated">PhotoSlot</text>
      </g>
      
      <!-- LocationCard -->
      <rect x="850" y="0" width="50" height="80" class="component-header"/>
      <g transform="translate(875, 75) rotate(-60)">
        <text x="0" y="0" class="label-rotated">LocationCard</text>
      </g>
      
      <!-- ReplyCard -->
      <rect x="900" y="0" width="50" height="80" class="component-header"/>
      <g transform="translate(925, 75) rotate(-60)">
        <text x="0" y="0" class="label-rotated">ReplyCard</text>
      </g>
      
      <!-- Switch -->
      <rect x="950" y="0" width="50" height="80" class="component-header"/>
      <g transform="translate(975, 75) rotate(-60)">
        <text x="0" y="0" class="label-rotated">Switch</text>
      </g>
    </g>
    
    <!-- Screen rows -->
    <g transform="translate(0, 80)">
      <!-- HomeScreen -->
      <rect x="0" y="0" width="180" height="24" class="screen-header"/>
      <text x="8" y="16" class="label-bold">HomeScreen</text>
      <rect x="180" y="0" width="50" height="24" class="cell-yes"/><rect x="180" y="0" width="50" height="24" class="cell-border"/>
      <rect x="230" y="0" width="50" height="24" class="cell-variant"/><rect x="230" y="0" width="50" height="24" class="cell-border"/>
      <rect x="280" y="0" width="50" height="24" class="cell-yes"/><rect x="280" y="0" width="50" height="24" class="cell-border"/>
      <rect x="330" y="0" width="50" height="24" class="cell-no"/><rect x="330" y="0" width="50" height="24" class="cell-border"/>
      <rect x="380" y="0" width="50" height="24" class="cell-no"/><rect x="380" y="0" width="50" height="24" class="cell-border"/>
      <rect x="430" y="0" width="50" height="24" class="cell-no"/><rect x="430" y="0" width="50" height="24" class="cell-border"/>
      <rect x="480" y="0" width="50" height="24" class="cell-yes"/><rect x="480" y="0" width="50" height="24" class="cell-border"/>
      <rect x="530" y="0" width="50" height="24" class="cell-no"/><rect x="530" y="0" width="50" height="24" class="cell-border"/>
      <rect x="580" y="0" width="50" height="24" class="cell-yes"/><rect x="580" y="0" width="50" height="24" class="cell-border"/>
      <rect x="630" y="0" width="50" height="24" class="cell-no"/><rect x="630" y="0" width="50" height="24" class="cell-border"/>
      <rect x="680" y="0" width="50" height="24" class="cell-no"/><rect x="680" y="0" width="50" height="24" class="cell-border"/>
      <rect x="730" y="0" width="50" height="24" class="cell-no"/><rect x="730" y="0" width="50" height="24" class="cell-border"/>
      <rect x="780" y="0" width="50" height="24" class="cell-yes"/><rect x="780" y="0" width="50" height="24" class="cell-border"/>
      <rect x="830" y="0" width="50" height="24" class="cell-no"/><rect x="830" y="0" width="50" height="24" class="cell-border"/>
      <rect x="880" y="0" width="50" height="24" class="cell-no"/><rect x="880" y="0" width="50" height="24" class="cell-border"/>
      <rect x="930" y="0" width="50" height="24" class="cell-no"/><rect x="930" y="0" width="50" height="24" class="cell-border"/>
      <rect x="980" y="0" width="50" height="24" class="cell-no"/><rect x="980" y="0" width="50" height="24" class="cell-border"/>
      <rect x="1030" y="0" width="50" height="24" class="cell-no"/><rect x="1030" y="0" width="50" height="24" class="cell-border"/>
      <rect x="1080" y="0" width="50" height="24" class="cell-no"/><rect x="1080" y="0" width="50" height="24" class="cell-border"/>
      <rect x="1130" y="0" width="50" height="24" class="cell-no"/><rect x="1130" y="0" width="50" height="24" class="cell-border"/>
      
      <!-- TransportHubScreen -->
      <rect x="0" y="24" width="180" height="24" class="screen-header"/>
      <text x="8" y="40" class="label-bold">TransportHubScreen</text>
      <rect x="180" y="24" width="50" height="24" class="cell-yes"/><rect x="180" y="24" width="50" height="24" class="cell-border"/>
      <rect x="230" y="24" width="50" height="24" class="cell-variant"/><rect x="230" y="24" width="50" height="24" class="cell-border"/>
      <rect x="280" y="24" width="50" height="24" class="cell-no"/><rect x="280" y="24" width="50" height="24" class="cell-border"/>
      <rect x="330" y="24" width="50" height="24" class="cell-no"/><rect x="330" y="24" width="50" height="24" class="cell-border"/>
      <rect x="380" y="24" width="50" height="24" class="cell-no"/><rect x="380" y="24" width="50" height="24" class="cell-border"/>
      <rect x="430" y="24" width="50" height="24" class="cell-no"/><rect x="430" y="24" width="50" height="24" class="cell-border"/>
      <rect x="480" y="24" width="50" height="24" class="cell-yes"/><rect x="480" y="24" width="50" height="24" class="cell-border"/>
      <rect x="530" y="24" width="50" height="24" class="cell-no"/><rect x="530" y="24" width="50" height="24" class="cell-border"/>
      <rect x="580" y="24" width="50" height="24" class="cell-no"/><rect x="580" y="24" width="50" height="24" class="cell-border"/>
      <rect x="630" y="24" width="50" height="24" class="cell-no"/><rect x="630" y="24" width="50" height="24" class="cell-border"/>
      <rect x="680" y="24" width="50" height="24" class="cell-no"/><rect x="680" y="24" width="50" height="24" class="cell-border"/>
      <rect x="730" y="24" width="50" height="24" class="cell-no"/><rect x="730" y="24" width="50" height="24" class="cell-border"/>
      <rect x="780" y="24" width="50" height="24" class="cell-no"/><rect x="780" y="24" width="50" height="24" class="cell-border"/>
      <rect x="830" y="24" width="50" height="24" class="cell-no"/><rect x="830" y="24" width="50" height="24" class="cell-border"/>
      <rect x="880" y="24" width="50" height="24" class="cell-no"/><rect x="880" y="24" width="50" height="24" class="cell-border"/>
      <rect x="930" y="24" width="50" height="24" class="cell-no"/><rect x="930" y="24" width="50" height="24" class="cell-border"/>
      <rect x="980" y="24" width="50" height="24" class="cell-no"/><rect x="980" y="24" width="50" height="24" class="cell-border"/>
      <rect x="1030" y="24" width="50" height="24" class="cell-no"/><rect x="1030" y="24" width="50" height="24" class="cell-border"/>
      <rect x="1080" y="24" width="50" height="24" class="cell-no"/><rect x="1080" y="24" width="50" height="24" class="cell-border"/>
      <rect x="1130" y="24" width="50" height="24" class="cell-no"/><rect x="1130" y="24" width="50" height="24" class="cell-border"/>
      
      <!-- RoadTransportScreen -->
      <rect x="0" y="48" width="180" height="24" class="screen-header"/>
      <text x="8" y="64" class="label-bold">RoadTransportScreen</text>
      <rect x="180" y="48" width="50" height="24" class="cell-yes"/><rect x="180" y="48" width="50" height="24" class="cell-border"/>
      <rect x="230" y="48" width="50" height="24" class="cell-variant"/><rect x="230" y="48" width="50" height="24" class="cell-border"/>
      <rect x="280" y="48" width="50" height="24" class="cell-yes"/><rect x="280" y="48" width="50" height="24" class="cell-border"/>
      <rect x="330" y="48" width="50" height="24" class="cell-no"/><rect x="330" y="48" width="50" height="24" class="cell-border"/>
      <rect x="380" y="48" width="50" height="24" class="cell-no"/><rect x="380" y="48" width="50" height="24" class="cell-border"/>
      <rect x="430" y="48" width="50" height="24" class="cell-no"/><rect x="430" y="48" width="50" height="24" class="cell-border"/>
      <rect x="480" y="48" width="50" height="24" class="cell-yes"/><rect x="480" y="48" width="50" height="24" class="cell-border"/>
      <rect x="530" y="48" width="50" height="24" class="cell-no"/><rect x="530" y="48" width="50" height="24" class="cell-border"/>
      <rect x="580" y="48" width="50" height="24" class="cell-no"/><rect x="580" y="48" width="50" height="24" class="cell-border"/>
      <rect x="630" y="48" width="50" height="24" class="cell-no"/><rect x="630" y="48" width="50" height="24" class="cell-border"/>
      <rect x="680" y="48" width="50" height="24" class="cell-no"/><rect x="680" y="48" width="50" height="24" class="cell-border"/>
      <rect x="730" y="48" width="50" height="24" class="cell-yes"/><rect x="730" y="48" width="50" height="24" class="cell-border"/>
      <rect x="780" y="48" width="50" height="24" class="cell-no"/><rect x="780" y="48" width="50" height="24" class="cell-border"/>
      <rect x="830" y="48" width="50" height="24" class="cell-no"/><rect x="830" y="48" width="50" height="24" class="cell-border"/>
      <rect x="880" y="48" width="50" height="24" class="cell-no"/><rect x="880" y="48" width="50" height="24" class="cell-border"/>
      <rect x="930" y="48" width="50" height="24" class="cell-no"/><rect x="930" y="48" width="50" height="24" class="cell-border"/>
      <rect x="980" y="48" width="50" height="24" class="cell-no"/><rect x="980" y="48" width="50" height="24" class="cell-border"/>
      <rect x="1030" y="48" width="50" height="24" class="cell-no"/><rect x="1030" y="48" width="50" height="24" class="cell-border"/>
      <rect x="1080" y="48" width="50" height="24" class="cell-no"/><rect x="1080" y="48" width="50" height="24" class="cell-border"/>
      <rect x="1130" y="48" width="50" height="24" class="cell-no"/><rect x="1130" y="48" width="50" height="24" class="cell-border"/>
      
      <!-- LineDetailScreen -->
      <rect x="0" y="72" width="180" height="24" class="screen-header"/>
      <text x="8" y="88" class="label-bold">LineDetailScreen</text>
      <rect x="180" y="72" width="50" height="24" class="cell-yes"/><rect x="180" y="72" width="50" height="24" class="cell-border"/>
      <rect x="230" y="72" width="50" height="24" class="cell-variant"/><rect x="230" y="72" width="50" height="24" class="cell-border"/>
      <rect x="280" y="72" width="50" height="24" class="cell-yes"/><rect x="280" y="72" width="50" height="24" class="cell-border"/>
      <rect x="330" y="72" width="50" height="24" class="cell-no"/><rect x="330" y="72" width="50" height="24" class="cell-border"/>
      <rect x="380" y="72" width="50" height="24" class="cell-no"/><rect x="380" y="72" width="50" height="24" class="cell-border"/>
      <rect x="430" y="72" width="50" height="24" class="cell-yes"/><rect x="430" y="72" width="50" height="24" class="cell-border"/>
      <rect x="480" y="72" width="50" height="24" class="cell-yes"/><rect x="480" y="72" width="50" height="24" class="cell-border"/>
      <rect x="530" y="72" width="50" height="24" class="cell-no"/><rect x="530" y="72" width="50" height="24" class="cell-border"/>
      <rect x="580" y="72" width="50" height="24" class="cell-no"/><rect x="580" y="72" width="50" height="24" class="cell-border"/>
      <rect x="630" y="72" width="50" height="24" class="cell-no"/><rect x="630" y="72" width="50" height="24" class="cell-border"/>
      <rect x="680" y="72" width="50" height="24" class="cell-no"/><rect x="680" y="72" width="50" height="24" class="cell-border"/>
      <rect x="730" y="72" width="50" height="24" class="cell-no"/><rect x="730" y="72" width="50" height="24" class="cell-border"/>
      <rect x="780" y="72" width="50" height="24" class="cell-no"/><rect x="780" y="72" width="50" height="24" class="cell-border"/>
      <rect x="830" y="72" width="50" height="24" class="cell-no"/><rect x="830" y="72" width="50" height="24" class="cell-border"/>
      <rect x="880" y="72" width="50" height="24" class="cell-no"/><rect x="880" y="72" width="50" height="24" class="cell-border"/>
      <rect x="930" y="72" width="50" height="24" class="cell-yes"/><rect x="930" y="72" width="50" height="24" class="cell-border"/>
      <rect x="980" y="72" width="50" height="24" class="cell-no"/><rect x="980" y="72" width="50" height="24" class="cell-border"/>
      <rect x="1030" y="72" width="50" height="24" class="cell-no"/><rect x="1030" y="72" width="50" height="24" class="cell-border"/>
      <rect x="1080" y="72" width="50" height="24" class="cell-no"/><rect x="1080" y="72" width="50" height="24" class="cell-border"/>
      <rect x="1130" y="72" width="50" height="24" class="cell-no"/><rect x="1130" y="72" width="50" height="24" class="cell-border"/>
      
      <!-- InboxListScreen -->
      <rect x="0" y="96" width="180" height="24" class="screen-header"/>
      <text x="8" y="112" class="label-bold">InboxListScreen</text>
      <rect x="180" y="96" width="50" height="24" class="cell-yes"/><rect x="180" y="96" width="50" height="24" class="cell-border"/>
      <rect x="230" y="96" width="50" height="24" class="cell-no"/><rect x="230" y="96" width="50" height="24" class="cell-border"/>
      <rect x="280" y="96" width="50" height="24" class="cell-no"/><rect x="280" y="96" width="50" height="24" class="cell-border"/>
      <rect x="330" y="96" width="50" height="24" class="cell-no"/><rect x="330" y="96" width="50" height="24" class="cell-border"/>
      <rect x="380" y="96" width="50" height="24" class="cell-no"/><rect x="380" y="96" width="50" height="24" class="cell-border"/>
      <rect x="430" y="96" width="50" height="24" class="cell-yes"/><rect x="430" y="96" width="50" height="24" class="cell-border"/>
      <rect x="480" y="96" width="50" height="24" class="cell-yes"/><rect x="480" y="96" width="50" height="24" class="cell-border"/>
      <rect x="530" y="96" width="50" height="24" class="cell-no"/><rect x="530" y="96" width="50" height="24" class="cell-border"/>
      <rect x="580" y="96" width="50" height="24" class="cell-no"/><rect x="580" y="96" width="50" height="24" class="cell-border"/>
      <rect x="630" y="96" width="50" height="24" class="cell-yes"/><rect x="630" y="96" width="50" height="24" class="cell-border"/>
      <rect x="680" y="96" width="50" height="24" class="cell-no"/><rect x="680" y="96" width="50" height="24" class="cell-border"/>
      <rect x="730" y="96" width="50" height="24" class="cell-no"/><rect x="730" y="96" width="50" height="24" class="cell-border"/>
      <rect x="780" y="96" width="50" height="24" class="cell-no"/><rect x="780" y="96" width="50" height="24" class="cell-border"/>
      <rect x="830" y="96" width="50" height="24" class="cell-yes"/><rect x="830" y="96" width="50" height="24" class="cell-border"/>
      <rect x="880" y="96" width="50" height="24" class="cell-no"/><rect x="880" y="96" width="50" height="24" class="cell-border"/>
      <rect x="930" y="96" width="50" height="24" class="cell-no"/><rect x="930" y="96" width="50" height="24" class="cell-border"/>
      <rect x="980" y="96" width="50" height="24" class="cell-no"/><rect x="980" y="96" width="50" height="24" class="cell-border"/>
      <rect x="1030" y="96" width="50" height="24" class="cell-no"/><rect x="1030" y="96" width="50" height="24" class="cell-border"/>
      <rect x="1080" y="96" width="50" height="24" class="cell-no"/><rect x="1080" y="96" width="50" height="24" class="cell-border"/>
      <rect x="1130" y="96" width="50" height="24" class="cell-no"/><rect x="1130" y="96" width="50" height="24" class="cell-border"/>
      
      <!-- EventsScreen -->
      <rect x="0" y="120" width="180" height="24" class="screen-header"/>
      <text x="8" y="136" class="label-bold">EventsScreen</text>
      <rect x="180" y="120" width="50" height="24" class="cell-yes"/><rect x="180" y="120" width="50" height="24" class="cell-border"/>
      <rect x="230" y="120" width="50" height="24" class="cell-variant"/><rect x="230" y="120" width="50" height="24" class="cell-border"/>
      <rect x="280" y="120" width="50" height="24" class="cell-yes"/><rect x="280" y="120" width="50" height="24" class="cell-border"/>
      <rect x="330" y="120" width="50" height="24" class="cell-no"/><rect x="330" y="120" width="50" height="24" class="cell-border"/>
      <rect x="380" y="120" width="50" height="24" class="cell-no"/><rect x="380" y="120" width="50" height="24" class="cell-border"/>
      <rect x="430" y="120" width="50" height="24" class="cell-no"/><rect x="430" y="120" width="50" height="24" class="cell-border"/>
      <rect x="480" y="120" width="50" height="24" class="cell-yes"/><rect x="480" y="120" width="50" height="24" class="cell-border"/>
      <rect x="530" y="120" width="50" height="24" class="cell-no"/><rect x="530" y="120" width="50" height="24" class="cell-border"/>
      <rect x="580" y="120" width="50" height="24" class="cell-no"/><rect x="580" y="120" width="50" height="24" class="cell-border"/>
      <rect x="630" y="120" width="50" height="24" class="cell-no"/><rect x="630" y="120" width="50" height="24" class="cell-border"/>
      <rect x="680" y="120" width="50" height="24" class="cell-yes"/><rect x="680" y="120" width="50" height="24" class="cell-border"/>
      <rect x="730" y="120" width="50" height="24" class="cell-no"/><rect x="730" y="120" width="50" height="24" class="cell-border"/>
      <rect x="780" y="120" width="50" height="24" class="cell-yes"/><rect x="780" y="120" width="50" height="24" class="cell-border"/>
      <rect x="830" y="120" width="50" height="24" class="cell-no"/><rect x="830" y="120" width="50" height="24" class="cell-border"/>
      <rect x="880" y="120" width="50" height="24" class="cell-no"/><rect x="880" y="120" width="50" height="24" class="cell-border"/>
      <rect x="930" y="120" width="50" height="24" class="cell-no"/><rect x="930" y="120" width="50" height="24" class="cell-border"/>
      <rect x="980" y="120" width="50" height="24" class="cell-no"/><rect x="980" y="120" width="50" height="24" class="cell-border"/>
      <rect x="1030" y="120" width="50" height="24" class="cell-no"/><rect x="1030" y="120" width="50" height="24" class="cell-border"/>
      <rect x="1080" y="120" width="50" height="24" class="cell-no"/><rect x="1080" y="120" width="50" height="24" class="cell-border"/>
      <rect x="1130" y="120" width="50" height="24" class="cell-no"/><rect x="1130" y="120" width="50" height="24" class="cell-border"/>
      
      <!-- EventDetailScreen -->
      <rect x="0" y="144" width="180" height="24" class="screen-header"/>
      <text x="8" y="160" class="label-bold">EventDetailScreen</text>
      <rect x="180" y="144" width="50" height="24" class="cell-yes"/><rect x="180" y="144" width="50" height="24" class="cell-border"/>
      <rect x="230" y="144" width="50" height="24" class="cell-no"/><rect x="230" y="144" width="50" height="24" class="cell-border"/>
      <rect x="280" y="144" width="50" height="24" class="cell-yes"/><rect x="280" y="144" width="50" height="24" class="cell-border"/>
      <rect x="330" y="144" width="50" height="24" class="cell-no"/><rect x="330" y="144" width="50" height="24" class="cell-border"/>
      <rect x="380" y="144" width="50" height="24" class="cell-yes"/><rect x="380" y="144" width="50" height="24" class="cell-border"/>
      <rect x="430" y="144" width="50" height="24" class="cell-no"/><rect x="430" y="144" width="50" height="24" class="cell-border"/>
      <rect x="480" y="144" width="50" height="24" class="cell-yes"/><rect x="480" y="144" width="50" height="24" class="cell-border"/>
      <rect x="530" y="144" width="50" height="24" class="cell-no"/><rect x="530" y="144" width="50" height="24" class="cell-border"/>
      <rect x="580" y="144" width="50" height="24" class="cell-yes"/><rect x="580" y="144" width="50" height="24" class="cell-border"/>
      <rect x="630" y="144" width="50" height="24" class="cell-no"/><rect x="630" y="144" width="50" height="24" class="cell-border"/>
      <rect x="680" y="144" width="50" height="24" class="cell-no"/><rect x="680" y="144" width="50" height="24" class="cell-border"/>
      <rect x="730" y="144" width="50" height="24" class="cell-no"/><rect x="730" y="144" width="50" height="24" class="cell-border"/>
      <rect x="780" y="144" width="50" height="24" class="cell-no"/><rect x="780" y="144" width="50" height="24" class="cell-border"/>
      <rect x="830" y="144" width="50" height="24" class="cell-no"/><rect x="830" y="144" width="50" height="24" class="cell-border"/>
      <rect x="880" y="144" width="50" height="24" class="cell-no"/><rect x="880" y="144" width="50" height="24" class="cell-border"/>
      <rect x="930" y="144" width="50" height="24" class="cell-no"/><rect x="930" y="144" width="50" height="24" class="cell-border"/>
      <rect x="980" y="144" width="50" height="24" class="cell-no"/><rect x="980" y="144" width="50" height="24" class="cell-border"/>
      <rect x="1030" y="144" width="50" height="24" class="cell-no"/><rect x="1030" y="144" width="50" height="24" class="cell-border"/>
      <rect x="1080" y="144" width="50" height="24" class="cell-no"/><rect x="1080" y="144" width="50" height="24" class="cell-border"/>
      <rect x="1130" y="144" width="50" height="24" class="cell-yes"/><rect x="1130" y="144" width="50" height="24" class="cell-border"/>
      
      <!-- FaunaScreen -->
      <rect x="0" y="168" width="180" height="24" class="screen-header"/>
      <text x="8" y="184" class="label-bold">FaunaScreen</text>
      <rect x="180" y="168" width="50" height="24" class="cell-yes"/><rect x="180" y="168" width="50" height="24" class="cell-border"/>
      <rect x="230" y="168" width="50" height="24" class="cell-no"/><rect x="230" y="168" width="50" height="24" class="cell-border"/>
      <rect x="280" y="168" width="50" height="24" class="cell-yes"/><rect x="280" y="168" width="50" height="24" class="cell-border"/>
      <rect x="330" y="168" width="50" height="24" class="cell-no"/><rect x="330" y="168" width="50" height="24" class="cell-border"/>
      <rect x="380" y="168" width="50" height="24" class="cell-yes"/><rect x="380" y="168" width="50" height="24" class="cell-border"/>
      <rect x="430" y="168" width="50" height="24" class="cell-no"/><rect x="430" y="168" width="50" height="24" class="cell-border"/>
      <rect x="480" y="168" width="50" height="24" class="cell-yes"/><rect x="480" y="168" width="50" height="24" class="cell-border"/>
      <rect x="530" y="168" width="50" height="24" class="cell-no"/><rect x="530" y="168" width="50" height="24" class="cell-border"/>
      <rect x="580" y="168" width="50" height="24" class="cell-no"/><rect x="580" y="168" width="50" height="24" class="cell-border"/>
      <rect x="630" y="168" width="50" height="24" class="cell-no"/><rect x="630" y="168" width="50" height="24" class="cell-border"/>
      <rect x="680" y="168" width="50" height="24" class="cell-no"/><rect x="680" y="168" width="50" height="24" class="cell-border"/>
      <rect x="730" y="168" width="50" height="24" class="cell-no"/><rect x="730" y="168" width="50" height="24" class="cell-border"/>
      <rect x="780" y="168" width="50" height="24" class="cell-no"/><rect x="780" y="168" width="50" height="24" class="cell-border"/>
      <rect x="830" y="168" width="50" height="24" class="cell-no"/><rect x="830" y="168" width="50" height="24" class="cell-border"/>
      <rect x="880" y="168" width="50" height="24" class="cell-yes"/><rect x="880" y="168" width="50" height="24" class="cell-border"/>
      <rect x="930" y="168" width="50" height="24" class="cell-no"/><rect x="930" y="168" width="50" height="24" class="cell-border"/>
      <rect x="980" y="168" width="50" height="24" class="cell-no"/><rect x="980" y="168" width="50" height="24" class="cell-border"/>
      <rect x="1030" y="168" width="50" height="24" class="cell-no"/><rect x="1030" y="168" width="50" height="24" class="cell-border"/>
      <rect x="1080" y="168" width="50" height="24" class="cell-no"/><rect x="1080" y="168" width="50" height="24" class="cell-border"/>
      <rect x="1130" y="168" width="50" height="24" class="cell-no"/><rect x="1130" y="168" width="50" height="24" class="cell-border"/>
      
      <!-- ClickFixFormScreen -->
      <rect x="0" y="192" width="180" height="24" class="screen-header"/>
      <text x="8" y="208" class="label-bold">ClickFixFormScreen</text>
      <rect x="180" y="192" width="50" height="24" class="cell-yes"/><rect x="180" y="192" width="50" height="24" class="cell-border"/>
      <rect x="230" y="192" width="50" height="24" class="cell-no"/><rect x="230" y="192" width="50" height="24" class="cell-border"/>
      <rect x="280" y="192" width="50" height="24" class="cell-no"/><rect x="280" y="192" width="50" height="24" class="cell-border"/>
      <rect x="330" y="192" width="50" height="24" class="cell-yes"/><rect x="330" y="192" width="50" height="24" class="cell-border"/>
      <rect x="380" y="192" width="50" height="24" class="cell-no"/><rect x="380" y="192" width="50" height="24" class="cell-border"/>
      <rect x="430" y="192" width="50" height="24" class="cell-no"/><rect x="430" y="192" width="50" height="24" class="cell-border"/>
      <rect x="480" y="192" width="50" height="24" class="cell-yes"/><rect x="480" y="192" width="50" height="24" class="cell-border"/>
      <rect x="530" y="192" width="50" height="24" class="cell-yes"/><rect x="530" y="192" width="50" height="24" class="cell-border"/>
      <rect x="580" y="192" width="50" height="24" class="cell-yes"/><rect x="580" y="192" width="50" height="24" class="cell-border"/>
      <rect x="630" y="192" width="50" height="24" class="cell-no"/><rect x="630" y="192" width="50" height="24" class="cell-border"/>
      <rect x="680" y="192" width="50" height="24" class="cell-no"/><rect x="680" y="192" width="50" height="24" class="cell-border"/>
      <rect x="730" y="192" width="50" height="24" class="cell-no"/><rect x="730" y="192" width="50" height="24" class="cell-border"/>
      <rect x="780" y="192" width="50" height="24" class="cell-no"/><rect x="780" y="192" width="50" height="24" class="cell-border"/>
      <rect x="830" y="192" width="50" height="24" class="cell-no"/><rect x="830" y="192" width="50" height="24" class="cell-border"/>
      <rect x="880" y="192" width="50" height="24" class="cell-no"/><rect x="880" y="192" width="50" height="24" class="cell-border"/>
      <rect x="930" y="192" width="50" height="24" class="cell-no"/><rect x="930" y="192" width="50" height="24" class="cell-border"/>
      <rect x="980" y="192" width="50" height="24" class="cell-yes"/><rect x="980" y="192" width="50" height="24" class="cell-border"/>
      <rect x="1030" y="192" width="50" height="24" class="cell-yes"/><rect x="1030" y="192" width="50" height="24" class="cell-border"/>
      <rect x="1080" y="192" width="50" height="24" class="cell-no"/><rect x="1080" y="192" width="50" height="24" class="cell-border"/>
      <rect x="1130" y="192" width="50" height="24" class="cell-no"/><rect x="1130" y="192" width="50" height="24" class="cell-border"/>
      
      <!-- ConfirmationScreens -->
      <rect x="0" y="216" width="180" height="24" class="screen-header"/>
      <text x="8" y="232" class="label-bold">*ConfirmationScreen</text>
      <rect x="180" y="216" width="50" height="24" class="cell-yes"/><rect x="180" y="216" width="50" height="24" class="cell-border"/>
      <rect x="230" y="216" width="50" height="24" class="cell-no"/><rect x="230" y="216" width="50" height="24" class="cell-border"/>
      <rect x="280" y="216" width="50" height="24" class="cell-no"/><rect x="280" y="216" width="50" height="24" class="cell-border"/>
      <rect x="330" y="216" width="50" height="24" class="cell-no"/><rect x="330" y="216" width="50" height="24" class="cell-border"/>
      <rect x="380" y="216" width="50" height="24" class="cell-no"/><rect x="380" y="216" width="50" height="24" class="cell-border"/>
      <rect x="430" y="216" width="50" height="24" class="cell-no"/><rect x="430" y="216" width="50" height="24" class="cell-border"/>
      <rect x="480" y="216" width="50" height="24" class="cell-no"/><rect x="480" y="216" width="50" height="24" class="cell-border"/>
      <rect x="530" y="216" width="50" height="24" class="cell-no"/><rect x="530" y="216" width="50" height="24" class="cell-border"/>
      <rect x="580" y="216" width="50" height="24" class="cell-yes"/><rect x="580" y="216" width="50" height="24" class="cell-border"/>
      <rect x="630" y="216" width="50" height="24" class="cell-no"/><rect x="630" y="216" width="50" height="24" class="cell-border"/>
      <rect x="680" y="216" width="50" height="24" class="cell-no"/><rect x="680" y="216" width="50" height="24" class="cell-border"/>
      <rect x="730" y="216" width="50" height="24" class="cell-no"/><rect x="730" y="216" width="50" height="24" class="cell-border"/>
      <rect x="780" y="216" width="50" height="24" class="cell-no"/><rect x="780" y="216" width="50" height="24" class="cell-border"/>
      <rect x="830" y="216" width="50" height="24" class="cell-no"/><rect x="830" y="216" width="50" height="24" class="cell-border"/>
      <rect x="880" y="216" width="50" height="24" class="cell-no"/><rect x="880" y="216" width="50" height="24" class="cell-border"/>
      <rect x="930" y="216" width="50" height="24" class="cell-no"/><rect x="930" y="216" width="50" height="24" class="cell-border"/>
      <rect x="980" y="216" width="50" height="24" class="cell-no"/><rect x="980" y="216" width="50" height="24" class="cell-border"/>
      <rect x="1030" y="216" width="50" height="24" class="cell-no"/><rect x="1030" y="216" width="50" height="24" class="cell-border"/>
      <rect x="1080" y="216" width="50" height="24" class="cell-no"/><rect x="1080" y="216" width="50" height="24" class="cell-border"/>
      <rect x="1130" y="216" width="50" height="24" class="cell-no"/><rect x="1130" y="216" width="50" height="24" class="cell-border"/>
      
      <!-- Onboarding -->
      <rect x="0" y="240" width="180" height="24" class="screen-header"/>
      <text x="8" y="256" class="label-bold">*OnboardingScreens</text>
      <rect x="180" y="240" width="50" height="24" class="cell-no"/><rect x="180" y="240" width="50" height="24" class="cell-border"/>
      <rect x="230" y="240" width="50" height="24" class="cell-no"/><rect x="230" y="240" width="50" height="24" class="cell-border"/>
      <rect x="280" y="240" width="50" height="24" class="cell-yes"/><rect x="280" y="240" width="50" height="24" class="cell-border"/>
      <rect x="330" y="240" width="50" height="24" class="cell-no"/><rect x="330" y="240" width="50" height="24" class="cell-border"/>
      <rect x="380" y="240" width="50" height="24" class="cell-no"/><rect x="380" y="240" width="50" height="24" class="cell-border"/>
      <rect x="430" y="240" width="50" height="24" class="cell-no"/><rect x="430" y="240" width="50" height="24" class="cell-border"/>
      <rect x="480" y="240" width="50" height="24" class="cell-yes"/><rect x="480" y="240" width="50" height="24" class="cell-border"/>
      <rect x="530" y="240" width="50" height="24" class="cell-no"/><rect x="530" y="240" width="50" height="24" class="cell-border"/>
      <rect x="580" y="240" width="50" height="24" class="cell-yes"/><rect x="580" y="240" width="50" height="24" class="cell-border"/>
      <rect x="630" y="240" width="50" height="24" class="cell-no"/><rect x="630" y="240" width="50" height="24" class="cell-border"/>
      <rect x="680" y="240" width="50" height="24" class="cell-no"/><rect x="680" y="240" width="50" height="24" class="cell-border"/>
      <rect x="730" y="240" width="50" height="24" class="cell-no"/><rect x="730" y="240" width="50" height="24" class="cell-border"/>
      <rect x="780" y="240" width="50" height="24" class="cell-no"/><rect x="780" y="240" width="50" height="24" class="cell-border"/>
      <rect x="830" y="240" width="50" height="24" class="cell-no"/><rect x="830" y="240" width="50" height="24" class="cell-border"/>
      <rect x="880" y="240" width="50" height="24" class="cell-no"/><rect x="880" y="240" width="50" height="24" class="cell-border"/>
      <rect x="930" y="240" width="50" height="24" class="cell-no"/><rect x="930" y="240" width="50" height="24" class="cell-border"/>
      <rect x="980" y="240" width="50" height="24" class="cell-no"/><rect x="980" y="240" width="50" height="24" class="cell-border"/>
      <rect x="1030" y="240" width="50" height="24" class="cell-no"/><rect x="1030" y="240" width="50" height="24" class="cell-border"/>
      <rect x="1080" y="240" width="50" height="24" class="cell-no"/><rect x="1080" y="240" width="50" height="24" class="cell-border"/>
      <rect x="1130" y="240" width="50" height="24" class="cell-no"/><rect x="1130" y="240" width="50" height="24" class="cell-border"/>
      
      <!-- Count row -->
      <rect x="0" y="276" width="180" height="28" fill="#333"/>
      <text x="90" y="294" text-anchor="middle" class="label-bold" fill="white">USAGE COUNT</text>
      <text x="205" y="295" text-anchor="middle" class="count-high">18</text>
      <text x="255" y="295" text-anchor="middle" class="count-med">8</text>
      <text x="305" y="295" text-anchor="middle" class="count-med">9</text>
      <text x="355" y="295" text-anchor="middle" class="count-low">2</text>
      <text x="405" y="295" text-anchor="middle" class="count-low">3</text>
      <text x="455" y="295" text-anchor="middle" class="count-low">4</text>
      <text x="505" y="295" text-anchor="middle" class="count-high">15</text>
      <text x="555" y="295" text-anchor="middle" class="count-low">2</text>
      <text x="605" y="295" text-anchor="middle" class="count-med">6</text>
      <text x="655" y="295" text-anchor="middle" class="count-low">2</text>
      <text x="705" y="295" text-anchor="middle" class="count-low">2</text>
      <text x="755" y="295" text-anchor="middle" class="count-low">2</text>
      <text x="805" y="295" text-anchor="middle" class="count-low">3</text>
      <text x="855" y="295" text-anchor="middle" class="count-low">2</text>
      <text x="905" y="295" text-anchor="middle" class="count-low">2</text>
      <text x="955" y="295" text-anchor="middle" class="count-low">1</text>
      <text x="1005" y="295" text-anchor="middle" class="count-low">1</text>
      <text x="1055" y="295" text-anchor="middle" class="count-low">1</text>
      <text x="1105" y="295" text-anchor="middle" class="count-low">2</text>
      <text x="1155" y="295" text-anchor="middle" class="count-low">1</text>
    </g>
  </g>
  
  <!-- Summary insights -->
  <g transform="translate(50, 530)">
    <text x="0" y="0" class="section-title">Key Insights from Matrix</text>
    
    <rect x="0" y="15" width="400" height="80" fill="#ffebee" stroke="#d32f2f" stroke-width="2" rx="4"/>
    <text x="15" y="35" class="label-bold" fill="#d32f2f">HIGH IMPACT (18+ uses) - Changes affect entire app:</text>
    <text x="15" y="52" class="label">• GlobalHeader (18 screens) - navigation consistency</text>
    <text x="15" y="67" class="label">• Card (15 screens) - core visual component</text>
    <text x="15" y="82" class="label">→ Priority for design token standardization</text>
    
    <rect x="420" y="15" width="400" height="80" fill="#fff3e0" stroke="#ff9800" stroke-width="2" rx="4"/>
    <text x="435" y="35" class="label-bold" fill="#e65100">MEDIUM IMPACT (4-8 uses):</text>
    <text x="435" y="52" class="label">• HeroSlab (9 screens) - title sections</text>
    <text x="435" y="67" class="label">• BannerList (8 screens) - announcements</text>
    <text x="435" y="82" class="label">→ Good candidates for component extraction</text>
    
    <rect x="840" y="15" width="400" height="80" fill="#e8f5e9" stroke="#4caf50" stroke-width="2" rx="4"/>
    <text x="855" y="35" class="label-bold" fill="#2e7d32">SPECIALIZED (1-3 uses):</text>
    <text x="855" y="52" class="label">• SpeciesCard, LocationCard, PhotoSlot (1-2 each)</text>
    <text x="855" y="67" class="label">• Feature-specific, but may have duplicate patterns</text>
    <text x="855" y="82" class="label">→ Check for shared base component opportunities</text>
  </g>
</svg>
