<svg xmlns="http://www.w3.org/2000/svg" viewBox="0 0 400 860" width="400" height="860">
  <defs>
    <style>
      .frame { fill: #f5f5f5; stroke: #333; stroke-width: 2; }
      .component { fill: white; stroke: #666; stroke-width: 1.5; }
      .component-alt { fill: #f0f0f0; stroke: #666; stroke-width: 1.5; }
      .header { fill: #e8e8e8; stroke: #333; stroke-width: 2; }
      .label { font-family: system-ui, sans-serif; font-size: 10px; fill: #333; }
      .label-bold { font-family: system-ui, sans-serif; font-size: 10px; fill: #333; font-weight: 600; }
      .label-small { font-family: system-ui, sans-serif; font-size: 8px; fill: #666; }
      .section-label { font-family: system-ui, sans-serif; font-size: 11px; fill: #1a1a1a; font-weight: 600; }
      .screen-title { font-family: system-ui, sans-serif; font-size: 14px; fill: #000; font-weight: 700; }
      .dashed { stroke-dasharray: 4,3; }
      .icon-placeholder { fill: #ddd; stroke: #999; stroke-width: 1; }
      .accent { fill: #fff3cd; stroke: #666; stroke-width: 1.5; }
      .cal-day { fill: white; stroke: #ccc; stroke-width: 1; }
      .cal-day-selected { fill: white; stroke: #333; stroke-width: 2; }
      .cal-day-today { fill: #e3f2fd; stroke: #666; stroke-width: 1; }
      .event-indicator { fill: #0066cc; }
    </style>
  </defs>
  
  <!-- Screen title -->
  <text x="200" y="20" text-anchor="middle" class="screen-title">EventsScreen</text>
  <text x="200" y="35" text-anchor="middle" class="label-small">mobile/src/screens/events/EventsScreen.tsx</text>
  
  <!-- Phone frame -->
  <rect x="20" y="50" width="360" height="780" rx="20" class="frame"/>
  
  <!-- Status bar area -->
  <rect x="20" y="50" width="360" height="44" rx="20" fill="#e0e0e0"/>
  <text x="200" y="77" text-anchor="middle" class="label-small">SafeAreaView (top inset)</text>
  
  <!-- GlobalHeader -->
  <g transform="translate(20, 94)">
    <rect x="0" y="0" width="360" height="64" class="header"/>
    <rect x="0" y="60" width="360" height="4" fill="#333"/>
    
    <!-- Menu button -->
    <rect x="12" y="10" width="44" height="44" class="icon-placeholder"/>
    <text x="34" y="36" text-anchor="middle" class="label-small">←</text>
    
    <!-- Title -->
    <text x="180" y="38" text-anchor="middle" class="label-bold">MOJ VIS</text>
    
    <!-- Inbox button -->
    <rect x="304" y="10" width="44" height="44" class="icon-placeholder"/>
    <text x="326" y="36" text-anchor="middle" class="label-small">✉</text>
  </g>
  <text x="390" y="130" text-anchor="end" class="label">GlobalHeader</text>
  
  <!-- Banner (optional) -->
  <g transform="translate(32, 170)">
    <rect x="0" y="0" width="336" height="40" class="component-alt" stroke-dasharray="4,3"/>
    <text x="168" y="24" text-anchor="middle" class="label">BannerList (optional)</text>
  </g>
  
  <!-- Hero Slab -->
  <g transform="translate(32, 218)">
    <rect x="0" y="0" width="336" height="56" class="accent"/>
    <rect x="0" y="52" width="336" height="4" fill="#333"/>
    <text x="16" y="24" class="label-bold">H1 - Events</text>
    <text x="16" y="42" class="label">Body - What's happening on Vis</text>
  </g>
  <text x="390" y="246" text-anchor="end" class="label">Hero Slab</text>
  
  <!-- Calendar Grid -->
  <g transform="translate(32, 290)">
    <text x="0" y="0" class="section-label">Calendar Grid</text>
    <text x="280" y="0" class="label-small">February 2026</text>
    
    <!-- Week header -->
    <g transform="translate(0, 16)">
      <text x="24" y="12" text-anchor="middle" class="label-small">M</text>
      <text x="72" y="12" text-anchor="middle" class="label-small">T</text>
      <text x="120" y="12" text-anchor="middle" class="label-small">W</text>
      <text x="168" y="12" text-anchor="middle" class="label-small">T</text>
      <text x="216" y="12" text-anchor="middle" class="label-small">F</text>
      <text x="264" y="12" text-anchor="middle" class="label-small">S</text>
      <text x="312" y="12" text-anchor="middle" class="label-small">S</text>
    </g>
    
    <!-- Week 1 -->
    <g transform="translate(0, 36)">
      <rect x="0" y="0" width="44" height="40" class="cal-day"/>
      <text x="22" y="20" text-anchor="middle" class="label-small" fill="#999">26</text>
      
      <rect x="48" y="0" width="44" height="40" class="cal-day"/>
      <text x="70" y="20" text-anchor="middle" class="label-small" fill="#999">27</text>
      
      <rect x="96" y="0" width="44" height="40" class="cal-day"/>
      <text x="118" y="20" text-anchor="middle" class="label-small" fill="#999">28</text>
      
      <rect x="144" y="0" width="44" height="40" class="cal-day"/>
      <text x="166" y="20" text-anchor="middle" class="label-small" fill="#999">29</text>
      
      <rect x="192" y="0" width="44" height="40" class="cal-day"/>
      <text x="214" y="20" text-anchor="middle" class="label-small" fill="#999">30</text>
      
      <rect x="240" y="0" width="44" height="40" class="cal-day"/>
      <text x="262" y="20" text-anchor="middle" class="label-small" fill="#999">31</text>
      
      <rect x="288" y="0" width="44" height="40" class="cal-day"/>
      <text x="310" y="20" text-anchor="middle" class="label">1</text>
    </g>
    
    <!-- Week 2 -->
    <g transform="translate(0, 80)">
      <rect x="0" y="0" width="44" height="40" class="cal-day"/>
      <text x="22" y="20" text-anchor="middle" class="label">2</text>
      
      <rect x="48" y="0" width="44" height="40" class="cal-day"/>
      <text x="70" y="20" text-anchor="middle" class="label">3</text>
      <rect x="66" y="28" width="8" height="8" class="event-indicator"/>
      
      <rect x="96" y="0" width="44" height="40" class="cal-day"/>
      <text x="118" y="20" text-anchor="middle" class="label">4</text>
      
      <rect x="144" y="0" width="44" height="40" class="cal-day"/>
      <text x="166" y="20" text-anchor="middle" class="label">5</text>
      
      <rect x="192" y="0" width="44" height="40" class="cal-day"/>
      <text x="214" y="20" text-anchor="middle" class="label">6</text>
      <rect x="210" y="28" width="8" height="8" class="event-indicator"/>
      
      <rect x="240" y="0" width="44" height="40" class="cal-day"/>
      <text x="262" y="20" text-anchor="middle" class="label">7</text>
      
      <rect x="288" y="0" width="44" height="40" class="cal-day"/>
      <text x="310" y="20" text-anchor="middle" class="label">8</text>
    </g>
    
    <!-- Week 3 (with selected and today) -->
    <g transform="translate(0, 124)">
      <rect x="0" y="0" width="44" height="40" class="cal-day"/>
      <text x="22" y="20" text-anchor="middle" class="label">9</text>
      
      <rect x="48" y="0" width="44" height="40" class="cal-day"/>
      <text x="70" y="20" text-anchor="middle" class="label">10</text>
      
      <rect x="96" y="0" width="44" height="40" class="cal-day"/>
      <text x="118" y="20" text-anchor="middle" class="label">11</text>
      
      <!-- Today -->
      <rect x="144" y="0" width="44" height="40" class="cal-day-today"/>
      <text x="166" y="20" text-anchor="middle" class="label-bold">12</text>
      
      <!-- Selected (with neobrut shadow) -->
      <rect x="196" y="4" width="44" height="40" fill="#333"/>
      <rect x="192" y="0" width="44" height="40" class="cal-day-selected"/>
      <text x="214" y="20" text-anchor="middle" class="label-bold">13</text>
      <rect x="210" y="28" width="8" height="8" class="event-indicator"/>
      
      <rect x="240" y="0" width="44" height="40" class="cal-day"/>
      <text x="262" y="20" text-anchor="middle" class="label">14</text>
      <rect x="258" y="28" width="8" height="8" class="event-indicator"/>
      
      <rect x="288" y="0" width="44" height="40" class="cal-day"/>
      <text x="310" y="20" text-anchor="middle" class="label">15</text>
    </g>
  </g>
  <text x="390" y="350" text-anchor="end" class="label">Calendar</text>
  <text x="390" y="362" text-anchor="end" class="label-small">calendar.* tokens</text>
  <text x="390" y="374" text-anchor="end" class="label-small">■ = hasEvents</text>
  <text x="390" y="386" text-anchor="end" class="label-small">shadow = selected</text>
  
  <!-- Selected Day Events -->
  <g transform="translate(32, 468)">
    <text x="0" y="0" class="section-label">Events for Feb 13</text>
    
    <!-- Event Card 1 -->
    <rect x="0" y="16" width="336" height="72" class="component"/>
    <rect x="0" y="84" width="336" height="4" fill="#333"/>
    
    <rect x="8" y="24" width="44" height="52" class="component-alt"/>
    <text x="30" y="44" text-anchor="middle" class="label-small">FEB</text>
    <text x="30" y="60" text-anchor="middle" class="label-bold">13</text>
    
    <text x="60" y="40" class="label-bold">Event Title</text>
    <text x="60" y="56" class="label-small">🕐 18:00  📍 Town Square</text>
    <text x="60" y="72" class="label-small">Category badge</text>
  </g>
  <text x="390" y="520" text-anchor="end" class="label">Event Card</text>
  <text x="390" y="532" text-anchor="end" class="label-small">events.card.*</text>
  
  <!-- Event Card 2 -->
  <g transform="translate(32, 566)">
    <rect x="0" y="0" width="336" height="72" class="component"/>
    <rect x="0" y="68" width="336" height="4" fill="#333"/>
    
    <rect x="8" y="8" width="44" height="52" class="component-alt"/>
    <text x="30" y="28" text-anchor="middle" class="label-small">FEB</text>
    <text x="30" y="44" text-anchor="middle" class="label-bold">13</text>
    
    <text x="60" y="24" class="label-bold">Another Event</text>
    <text x="60" y="40" class="label-small">🕐 20:00  📍 Harbor</text>
  </g>
  
  <!-- Empty state indicator -->
  <g transform="translate(32, 660)">
    <rect x="0" y="0" width="336" height="60" fill="none" stroke="#ccc" stroke-width="1" stroke-dasharray="4,3"/>
    <text x="168" y="25" text-anchor="middle" class="label-small" fill="#999">EmptyState if no events</text>
    <text x="168" y="40" text-anchor="middle" class="label-small" fill="#999">events.emptyState.*</text>
  </g>
  
  <!-- Bottom safe area -->
  <rect x="20" y="770" width="360" height="60" rx="20" fill="#e0e0e0"/>
  <text x="200" y="805" text-anchor="middle" class="label-small">SafeAreaView (bottom inset)</text>
  
  <!-- Notes -->
  <text x="20" y="850" class="label-small">Layout: Hero Slab → Calendar Grid → Selected Day Events List</text>
</svg>
