<svg xmlns="http://www.w3.org/2000/svg" viewBox="0 0 400 860" width="400" height="860">
  <defs>
    <style>
      .frame { fill: #f5f5f5; stroke: #333; stroke-width: 2; }
      .component { fill: white; stroke: #666; stroke-width: 1.5; }
      .component-alt { fill: #f0f0f0; stroke: #666; stroke-width: 1.5; }
      .header { fill: #e8e8e8; stroke: #333; stroke-width: 2; }
      .label { font-family: system-ui, sans-serif; font-size: 10px; fill: #333; }
      .label-bold { font-family: system-ui, sans-serif; font-size: 10px; fill: #333; font-weight: 600; }
      .label-small { font-family: system-ui, sans-serif; font-size: 8px; fill: #666; }
      .section-label { font-family: system-ui, sans-serif; font-size: 11px; fill: #1a1a1a; font-weight: 600; }
      .screen-title { font-family: system-ui, sans-serif; font-size: 14px; fill: #000; font-weight: 700; }
      .dashed { stroke-dasharray: 4,3; }
      .icon-placeholder { fill: #ddd; stroke: #999; stroke-width: 1; }
      .accent { fill: #fff3cd; stroke: #666; stroke-width: 1.5; }
    </style>
  </defs>
  
  <!-- Screen title -->
  <text x="200" y="20" text-anchor="middle" class="screen-title">HomeScreen</text>
  <text x="200" y="35" text-anchor="middle" class="label-small">mobile/src/screens/home/HomeScreen.tsx</text>
  
  <!-- Phone frame -->
  <rect x="20" y="50" width="360" height="780" rx="20" class="frame"/>
  
  <!-- Status bar area -->
  <rect x="20" y="50" width="360" height="44" rx="20" fill="#e0e0e0"/>
  <text x="200" y="77" text-anchor="middle" class="label-small">SafeAreaView (top inset)</text>
  
  <!-- GlobalHeader -->
  <g transform="translate(20, 94)">
    <rect x="0" y="0" width="360" height="64" class="header"/>
    <rect x="0" y="60" width="360" height="4" fill="#333"/>
    
    <!-- Menu button -->
    <rect x="12" y="10" width="44" height="44" class="icon-placeholder"/>
    <text x="34" y="36" text-anchor="middle" class="label-small">☰</text>
    
    <!-- Title -->
    <text x="180" y="38" text-anchor="middle" class="label-bold">MOJ VIS</text>
    
    <!-- Inbox button -->
    <rect x="304" y="10" width="44" height="44" class="icon-placeholder"/>
    <text x="326" y="36" text-anchor="middle" class="label-small">✉</text>
    <circle cx="338" cy="18" r="8" fill="#ff6b6b" stroke="#333" stroke-width="1"/>
    <text x="338" y="21" text-anchor="middle" class="label-small" fill="white">3</text>
  </g>
  <text x="390" y="130" text-anchor="end" class="label">GlobalHeader</text>
  <text x="390" y="142" text-anchor="end" class="label-small">height: 64px</text>
  <text x="390" y="154" text-anchor="end" class="label-small">borderBottom: 4px</text>
  
  <!-- Banner (optional) -->
  <g transform="translate(32, 170)">
    <rect x="0" y="0" width="336" height="48" class="component-alt" stroke-dasharray="4,3"/>
    <text x="168" y="28" text-anchor="middle" class="label">BannerList (optional)</text>
  </g>
  
  <!-- Hero Slab -->
  <g transform="translate(32, 226)">
    <rect x="0" y="0" width="336" height="80" class="accent"/>
    <rect x="0" y="76" width="336" height="4" fill="#333"/>
    <text x="12" y="24" class="label-bold">H1 - Welcome / Hero title</text>
    <text x="12" y="42" class="label">Body - subtitle text</text>
    <text x="12" y="62" class="label-small">Icon decorations</text>
  </g>
  <text x="390" y="270" text-anchor="end" class="label">Hero Slab</text>
  <text x="390" y="282" text-anchor="end" class="label-small">warningAccent bg</text>
  
  <!-- Category Grid (2x2) -->
  <g transform="translate(32, 318)">
    <text x="0" y="0" class="section-label">Category Grid (2×2)</text>
    
    <!-- Row 1 -->
    <rect x="0" y="12" width="162" height="72" class="component"/>
    <rect x="8" y="20" width="32" height="32" class="icon-placeholder"/>
    <text x="48" y="42" class="label">Transport</text>
    <text x="48" y="54" class="label-small">Icon + Label</text>
    
    <rect x="174" y="12" width="162" height="72" class="component"/>
    <rect x="182" y="20" width="32" height="32" class="icon-placeholder"/>
    <text x="222" y="42" class="label">Events</text>
    
    <!-- Row 2 -->
    <rect x="0" y="92" width="162" height="72" class="component"/>
    <rect x="8" y="100" width="32" height="32" class="icon-placeholder"/>
    <text x="48" y="122" class="label">Flora</text>
    
    <rect x="174" y="92" width="162" height="72" class="component"/>
    <rect x="182" y="100" width="32" height="32" class="icon-placeholder"/>
    <text x="222" y="122" class="label">Fauna</text>
  </g>
  <text x="390" y="380" text-anchor="end" class="label">Card tiles</text>
  <text x="390" y="392" text-anchor="end" class="label-small">IconBox + Label</text>
  
  <!-- Upcoming Events Section -->
  <g transform="translate(32, 508)">
    <text x="0" y="0" class="section-label">Upcoming Events</text>
    <text x="280" y="0" class="label" fill="#0066cc">See all →</text>
    
    <!-- Event Card 1 (highlighted) -->
    <rect x="0" y="12" width="336" height="68" class="accent"/>
    <rect x="0" y="76" width="336" height="4" fill="#333"/>
    <rect x="8" y="20" width="44" height="52" class="component"/>
    <text x="30" y="40" text-anchor="middle" class="label-small">JAN</text>
    <text x="30" y="54" text-anchor="middle" class="label-bold">15</text>
    <text x="60" y="36" class="label-bold">Event Title</text>
    <text x="60" y="50" class="label-small">🕐 Time  📍 Location</text>
    <text x="60" y="64" class="label-small">Meta info</text>
  </g>
  <text x="390" y="560" text-anchor="end" class="label">Event Card</text>
  <text x="390" y="572" text-anchor="end" class="label-small">first: warningAccent</text>
  
  <!-- Event Card 2 -->
  <g transform="translate(32, 600)">
    <rect x="0" y="0" width="336" height="68" class="component"/>
    <rect x="0" y="64" width="336" height="4" fill="#333"/>
    <rect x="8" y="8" width="44" height="52" class="component-alt"/>
    <text x="30" y="28" text-anchor="middle" class="label-small">FEB</text>
    <text x="30" y="42" text-anchor="middle" class="label-bold">02</text>
    <text x="60" y="24" class="label-bold">Event Title</text>
    <text x="60" y="38" class="label-small">🕐 Time  📍 Location</text>
  </g>
  
  <!-- Feedback CTA -->
  <g transform="translate(32, 690)">
    <text x="0" y="0" class="section-label">Feedback CTA</text>
    <rect x="0" y="12" width="336" height="56" class="component"/>
    <text x="168" y="46" text-anchor="middle" class="label">Button - "Send Feedback"</text>
  </g>
  
  <!-- Bottom safe area -->
  <rect x="20" y="770" width="360" height="60" rx="20" fill="#e0e0e0"/>
  <text x="200" y="805" text-anchor="middle" class="label-small">SafeAreaView (bottom inset)</text>
  
  <!-- Notes -->
  <text x="20" y="850" class="label-small">Layout: Banner → Hero Slab → 2×2 Grid → Events → CTA</text>
</svg>
