<svg xmlns="http://www.w3.org/2000/svg" viewBox="0 0 400 860" width="400" height="860">
  <defs>
    <style>
      .frame { fill: #f5f5f5; stroke: #333; stroke-width: 2; }
      .component { fill: white; stroke: #666; stroke-width: 1.5; }
      .component-alt { fill: #f0f0f0; stroke: #666; stroke-width: 1.5; }
      .label { font-family: system-ui, sans-serif; font-size: 10px; fill: #333; }
      .label-bold { font-family: system-ui, sans-serif; font-size: 10px; fill: #333; font-weight: 600; }
      .label-small { font-family: system-ui, sans-serif; font-size: 8px; fill: #666; }
      .section-label { font-family: system-ui, sans-serif; font-size: 11px; fill: #1a1a1a; font-weight: 600; }
      .screen-title { font-family: system-ui, sans-serif; font-size: 14px; fill: #000; font-weight: 700; }
      .icon-placeholder { fill: #ddd; stroke: #999; stroke-width: 1; }
      .yellow-header { fill: #fff3cd; stroke: #333; stroke-width: 2; }
      .lang-card { fill: white; stroke: #666; stroke-width: 2; }
      .lang-card-selected { fill: #e3f2fd; stroke: #1976d2; stroke-width: 3; }
      .flag-box { fill: #f5f5f5; stroke: #999; stroke-width: 1; }
      .progress-dot { fill: #333; }
      .progress-dot-inactive { fill: #ccc; }
    </style>
  </defs>
  
  <!-- Screen title -->
  <text x="200" y="20" text-anchor="middle" class="screen-title">LanguageSelectionScreen</text>
  <text x="200" y="35" text-anchor="middle" class="label-small">mobile/src/screens/onboarding/LanguageSelectionScreen.tsx</text>
  
  <!-- Phone frame -->
  <rect x="20" y="50" width="360" height="780" rx="20" class="frame"/>
  
  <!-- Status bar area -->
  <rect x="20" y="50" width="360" height="44" rx="20" fill="#e0e0e0"/>
  <text x="200" y="77" text-anchor="middle" class="label-small">SafeAreaView (top inset)</text>
  
  <!-- NO GlobalHeader - onboarding has custom header -->
  <g transform="translate(32, 110)">
    <rect x="0" y="0" width="336" height="40" fill="none" stroke="#ccc" stroke-width="1" stroke-dasharray="4,3"/>
    <text x="168" y="24" text-anchor="middle" class="label-small" fill="#999">No GlobalHeader on onboarding screens</text>
  </g>
  
  <!-- Hero/Title Section -->
  <g transform="translate(20, 166)">
    <rect x="0" y="0" width="360" height="100" class="yellow-header"/>
    <rect x="0" y="96" width="360" height="4" fill="#333"/>
    
    <text x="180" y="40" text-anchor="middle" class="label-bold" style="font-size: 20px;">Welcome to MOJ VIS</text>
    <text x="180" y="65" text-anchor="middle" class="label">Choose your preferred language</text>
    <text x="180" y="85" text-anchor="middle" class="label">Odaberite željeni jezik</text>
  </g>
  <text x="390" y="220" text-anchor="end" class="label">Hero Section</text>
  <text x="390" y="232" text-anchor="end" class="label-small">accent (yellow)</text>
  
  <!-- Language Options -->
  <g transform="translate(32, 290)">
    <text x="0" y="0" class="section-label">Select Language</text>
    
    <!-- Croatian (selected) -->
    <g transform="translate(0, 20)">
      <rect x="4" y="4" width="336" height="72" fill="#333"/>
      <rect x="0" y="0" width="336" height="72" class="lang-card-selected"/>
      
      <rect x="16" y="16" width="40" height="40" class="flag-box"/>
      <text x="36" y="40" text-anchor="middle" class="label-small">🇭🇷</text>
      
      <text x="72" y="36" class="label-bold" style="font-size: 14px;">Hrvatski</text>
      <text x="72" y="54" class="label-small">Croatian</text>
      
      <circle cx="304" cy="36" r="12" fill="#1976d2" stroke="#333" stroke-width="2"/>
      <text x="304" y="40" text-anchor="middle" class="label-small" fill="white">✓</text>
    </g>
  </g>
  <text x="390" y="350" text-anchor="end" class="label">Language Card</text>
  <text x="390" y="362" text-anchor="end" class="label-small">selected state</text>
  <text x="390" y="374" text-anchor="end" class="label-small">neobrut shadow</text>
  
  <!-- English -->
  <g transform="translate(32, 400)">
    <rect x="0" y="0" width="336" height="72" class="lang-card"/>
    <rect x="0" y="68" width="336" height="4" fill="#333"/>
    
    <rect x="16" y="16" width="40" height="40" class="flag-box"/>
    <text x="36" y="40" text-anchor="middle" class="label-small">🇬🇧</text>
    
    <text x="72" y="36" class="label-bold" style="font-size: 14px;">English</text>
    <text x="72" y="54" class="label-small">English</text>
    
    <circle cx="304" cy="36" r="12" fill="none" stroke="#999" stroke-width="2"/>
  </g>
  <text x="390" y="440" text-anchor="end" class="label">Language Card</text>
  <text x="390" y="452" text-anchor="end" class="label-small">unselected state</text>
  
  <!-- German -->
  <g transform="translate(32, 488)">
    <rect x="0" y="0" width="336" height="72" class="lang-card"/>
    <rect x="0" y="68" width="336" height="4" fill="#333"/>
    
    <rect x="16" y="16" width="40" height="40" class="flag-box"/>
    <text x="36" y="40" text-anchor="middle" class="label-small">🇩🇪</text>
    
    <text x="72" y="36" class="label-bold" style="font-size: 14px;">Deutsch</text>
    <text x="72" y="54" class="label-small">German</text>
    
    <circle cx="304" cy="36" r="12" fill="none" stroke="#999" stroke-width="2"/>
  </g>
  
  <!-- Italian -->
  <g transform="translate(32, 576)">
    <rect x="0" y="0" width="336" height="72" class="lang-card"/>
    <rect x="0" y="68" width="336" height="4" fill="#333"/>
    
    <rect x="16" y="16" width="40" height="40" class="flag-box"/>
    <text x="36" y="40" text-anchor="middle" class="label-small">🇮🇹</text>
    
    <text x="72" y="36" class="label-bold" style="font-size: 14px;">Italiano</text>
    <text x="72" y="54" class="label-small">Italian</text>
    
    <circle cx="304" cy="36" r="12" fill="none" stroke="#999" stroke-width="2"/>
  </g>
  
  <!-- Progress Dots -->
  <g transform="translate(170, 680)">
    <circle cx="0" cy="0" r="6" class="progress-dot"/>
    <circle cx="20" cy="0" r="6" class="progress-dot-inactive"/>
    <circle cx="40" cy="0" r="6" class="progress-dot-inactive"/>
  </g>
  <text x="390" y="682" text-anchor="end" class="label">Progress Dots</text>
  <text x="390" y="694" text-anchor="end" class="label-small">Step 1 of 3</text>
  
  <!-- Continue button auto-triggers on selection -->
  <g transform="translate(32, 710)">
    <rect x="0" y="0" width="336" height="40" fill="none" stroke="#ccc" stroke-width="1" stroke-dasharray="4,3"/>
    <text x="168" y="24" text-anchor="middle" class="label-small" fill="#999">Auto-navigates on selection (no button)</text>
  </g>
  
  <!-- Bottom safe area -->
  <rect x="20" y="770" width="360" height="60" rx="20" fill="#e0e0e0"/>
  <text x="200" y="805" text-anchor="middle" class="label-small">SafeAreaView (bottom inset)</text>
  
  <!-- Notes -->
  <text x="20" y="850" class="label-small">Layout: Hero Title → Language Cards (4 options) → Progress Dots (1/3) — No header, auto-nav</text>
</svg>
