<svg xmlns="http://www.w3.org/2000/svg" viewBox="0 0 400 1050" width="400" height="1050">
  <defs>
    <style>
      .frame { fill: #f5f5f5; stroke: #333; stroke-width: 2; }
      .component { fill: white; stroke: #666; stroke-width: 1.5; }
      .component-alt { fill: #f0f0f0; stroke: #666; stroke-width: 1.5; }
      .header { fill: #e8e8e8; stroke: #333; stroke-width: 2; }
      .label { font-family: system-ui, sans-serif; font-size: 10px; fill: #333; }
      .label-bold { font-family: system-ui, sans-serif; font-size: 10px; fill: #333; font-weight: 600; }
      .label-small { font-family: system-ui, sans-serif; font-size: 8px; fill: #666; }
      .section-label { font-family: system-ui, sans-serif; font-size: 11px; fill: #1a1a1a; font-weight: 600; }
      .screen-title { font-family: system-ui, sans-serif; font-size: 14px; fill: #000; font-weight: 700; }
      .icon-placeholder { fill: #ddd; stroke: #999; stroke-width: 1; }
      .colored-header { fill: #b3d9ff; stroke: #333; stroke-width: 2; }
      .tab-active { fill: #333; stroke: #333; stroke-width: 1.5; }
      .tab-inactive { fill: white; stroke: #666; stroke-width: 1.5; }
      .timeline-dot { fill: #0066cc; stroke: #333; stroke-width: 1; }
      .timeline-line { stroke: #333; stroke-width: 2; }
      .time-block { fill: #e3f2fd; stroke: #666; stroke-width: 1; }
      .ticket-box { fill: #fff8e1; stroke: #333; stroke-width: 2; }
    </style>
  </defs>
  
  <!-- Screen title -->
  <text x="200" y="20" text-anchor="middle" class="screen-title">LineDetailScreen</text>
  <text x="200" y="35" text-anchor="middle" class="label-small">mobile/src/screens/transport/LineDetailScreen.tsx</text>
  
  <!-- Phone frame -->
  <rect x="20" y="50" width="360" height="970" rx="20" class="frame"/>
  
  <!-- Status bar area -->
  <rect x="20" y="50" width="360" height="44" rx="20" fill="#e0e0e0"/>
  <text x="200" y="77" text-anchor="middle" class="label-small">SafeAreaView (top inset)</text>
  
  <!-- GlobalHeader -->
  <g transform="translate(20, 94)">
    <rect x="0" y="0" width="360" height="64" class="header"/>
    <rect x="0" y="60" width="360" height="4" fill="#333"/>
    <rect x="12" y="10" width="44" height="44" class="icon-placeholder"/>
    <text x="34" y="36" text-anchor="middle" class="label-small">←</text>
    <text x="180" y="38" text-anchor="middle" class="label-bold">MOJ VIS</text>
    <rect x="304" y="10" width="44" height="44" class="icon-placeholder"/>
    <text x="326" y="36" text-anchor="middle" class="label-small">✉</text>
  </g>
  <text x="390" y="130" text-anchor="end" class="label">GlobalHeader</text>
  
  <!-- Banner -->
  <g transform="translate(32, 166)">
    <rect x="0" y="0" width="336" height="32" class="component-alt" stroke-dasharray="4,3"/>
    <text x="168" y="20" text-anchor="middle" class="label">BannerList (optional)</text>
  </g>
  
  <!-- Colored Header Slab -->
  <g transform="translate(32, 206)">
    <rect x="0" y="0" width="336" height="64" class="colored-header"/>
    <rect x="0" y="60" width="336" height="4" fill="#333"/>
    
    <rect x="12" y="10" width="44" height="44" class="component"/>
    <text x="34" y="36" text-anchor="middle" class="label-small">⛴</text>
    
    <text x="68" y="28" class="label-bold">H1 - Line 602</text>
    <text x="68" y="46" class="label">Split - Vis (Ferry)</text>
  </g>
  <text x="390" y="240" text-anchor="end" class="label">Header Slab</text>
  <text x="390" y="252" text-anchor="end" class="label-small">transportType color</text>
  
  <!-- Date Selector Card -->
  <g transform="translate(32, 282)">
    <rect x="0" y="0" width="336" height="56" class="component"/>
    <rect x="0" y="52" width="336" height="4" fill="#333"/>
    
    <rect x="12" y="12" width="32" height="32" class="icon-placeholder"/>
    <text x="28" y="32" text-anchor="middle" class="label-small">📅</text>
    
    <text x="56" y="24" class="label-bold">Select Date</text>
    <text x="56" y="40" class="label">Thursday, Feb 13, 2026</text>
    
    <rect x="280" y="12" width="44" height="32" class="icon-placeholder"/>
    <text x="302" y="32" text-anchor="middle" class="label-small">▼</text>
  </g>
  <text x="390" y="316" text-anchor="end" class="label">Date Selector</text>
  <text x="390" y="328" text-anchor="end" class="label-small">⚠️ Platform-specific</text>
  <text x="390" y="340" text-anchor="end" class="label-small">iOS: Modal picker</text>
  <text x="390" y="352" text-anchor="end" class="label-small">Android: Native</text>
  
  <!-- Direction Tabs -->
  <g transform="translate(32, 350)">
    <text x="0" y="0" class="section-label">Direction</text>
    
    <rect x="0" y="14" width="164" height="36" class="tab-active"/>
    <text x="82" y="37" text-anchor="middle" class="label-bold" fill="white">Split → Vis</text>
    
    <rect x="172" y="14" width="164" height="36" class="tab-inactive"/>
    <text x="254" y="37" text-anchor="middle" class="label">Vis → Split</text>
  </g>
  <text x="390" y="386" text-anchor="end" class="label">Tab Navigation</text>
  <text x="390" y="398" text-anchor="end" class="label-small">components.tab.*</text>
  <text x="390" y="410" text-anchor="end" class="label-small">⚠️ DUPLICATED</text>
  
  <!-- Route Info -->
  <g transform="translate(32, 410)">
    <text x="0" y="0" class="section-label">Route Info</text>
    <text x="0" y="18" class="label">Body - Stops: Split • Vis</text>
    <text x="0" y="34" class="label-small">Meta - Duration: 2h 30min</text>
  </g>
  
  <!-- Departures List -->
  <g transform="translate(32, 458)">
    <text x="0" y="0" class="section-label">Departures</text>
    
    <!-- DepartureItem 1 (collapsed) -->
    <g transform="translate(0, 16)">
      <rect x="0" y="0" width="336" height="56" class="component"/>
      <rect x="0" y="52" width="336" height="4" fill="#333"/>
      
      <!-- Time block -->
      <rect x="8" y="8" width="64" height="40" class="time-block"/>
      <text x="40" y="34" text-anchor="middle" class="label-bold">05:30</text>
      
      <!-- Info -->
      <text x="84" y="24" class="label-bold">Morning Ferry</text>
      <text x="84" y="40" class="label-small">Duration: 2h 30min • Carrier: Jadrolinija</text>
      
      <!-- Expand chevron -->
      <rect x="296" y="12" width="32" height="32" class="icon-placeholder"/>
      <text x="312" y="32" text-anchor="middle" class="label-small">▼</text>
    </g>
  </g>
  <text x="390" y="508" text-anchor="end" class="label">DepartureItem</text>
  <text x="390" y="520" text-anchor="end" class="label-small">lineDetail.* tokens</text>
  
  <!-- DepartureItem 2 (expanded with timeline) -->
  <g transform="translate(32, 542)">
    <rect x="0" y="0" width="336" height="140" class="component"/>
    <rect x="0" y="136" width="336" height="4" fill="#333"/>
    
    <!-- Time block -->
    <rect x="8" y="8" width="64" height="40" class="time-block"/>
    <text x="40" y="34" text-anchor="middle" class="label-bold">14:30</text>
    
    <!-- Info -->
    <text x="84" y="24" class="label-bold">Afternoon Ferry</text>
    <text x="84" y="40" class="label-small">Duration: 2h 30min</text>
    
    <!-- Collapse chevron -->
    <rect x="296" y="12" width="32" height="32" class="icon-placeholder"/>
    <text x="312" y="32" text-anchor="middle" class="label-small">▲</text>
    
    <!-- Timeline (expanded) -->
    <g transform="translate(16, 56)">
      <!-- Timeline line -->
      <line x1="8" y1="8" x2="8" y2="72" class="timeline-line"/>
      
      <!-- Stop 1 -->
      <circle cx="8" cy="8" r="6" class="timeline-dot"/>
      <text x="24" y="6" class="label-small">14:30</text>
      <text x="60" y="6" class="label-bold">Split</text>
      <text x="60" y="18" class="label-small">Departure</text>
      
      <!-- Stop 2 -->
      <circle cx="8" cy="72" r="6" class="timeline-dot"/>
      <text x="24" y="70" class="label-small">17:00</text>
      <text x="60" y="70" class="label-bold">Vis</text>
      <text x="60" y="82" class="label-small">Arrival</text>
    </g>
  </g>
  <text x="390" y="610" text-anchor="end" class="label">Timeline (expanded)</text>
  <text x="390" y="622" text-anchor="end" class="label-small">LayoutAnimation</text>
  <text x="390" y="634" text-anchor="end" class="label-small">⚠️ Hardcoded 24px</text>
  
  <!-- Ticket Info Box -->
  <g transform="translate(32, 700)">
    <text x="0" y="0" class="section-label">Ticket Information</text>
    
    <rect x="0" y="16" width="336" height="80" class="ticket-box"/>
    <rect x="0" y="92" width="336" height="4" fill="#333"/>
    
    <rect x="12" y="28" width="32" height="32" class="icon-placeholder"/>
    <text x="28" y="48" text-anchor="middle" class="label-small">🎫</text>
    
    <text x="56" y="40" class="label-bold">Buy Tickets</text>
    <text x="56" y="56" class="label">Jadrolinija online booking</text>
    <text x="56" y="72" class="label-small" fill="#0066cc">→ jadrolinija.hr</text>
  </g>
  <text x="390" y="760" text-anchor="end" class="label">Ticket Box</text>
  <text x="390" y="772" text-anchor="end" class="label-small">SEA_LINE_CARRIERS</text>
  <text x="390" y="784" text-anchor="end" class="label-small">4 variants:</text>
  <text x="390" y="796" text-anchor="end" class="label-small">Jadrolinija/Krilo/</text>
  <text x="390" y="808" text-anchor="end" class="label-small">boarding/fallback</text>
  
  <!-- Contacts -->
  <g transform="translate(32, 820)">
    <text x="0" y="0" class="section-label">Contact</text>
    
    <rect x="0" y="16" width="336" height="48" class="component-alt"/>
    <text x="12" y="36" class="label">📞 Phone number</text>
    <text x="12" y="52" class="label-small">Meta - carrier info</text>
  </g>
  
  <!-- Empty space -->
  <g transform="translate(32, 896)">
    <rect x="0" y="0" width="336" height="60" fill="none" stroke="#ccc" stroke-width="1" stroke-dasharray="4,3"/>
    <text x="168" y="25" text-anchor="middle" class="label-small" fill="#999">LoadingState / ErrorState</text>
    <text x="168" y="40" text-anchor="middle" class="label-small" fill="#999">(conditional rendering)</text>
  </g>
  
  <!-- Bottom safe area -->
  <rect x="20" y="960" width="360" height="60" rx="20" fill="#e0e0e0"/>
  <text x="200" y="995" text-anchor="middle" class="label-small">SafeAreaView (bottom inset)</text>
  
  <!-- Notes -->
  <text x="20" y="1038" class="label-small">Layout: Header → Date Selector → Direction Tabs → Route → Departures → Ticket Box → Contacts</text>
</svg>
