<svg xmlns="http://www.w3.org/2000/svg" viewBox="0 0 400 900" width="400" height="900">
  <defs>
    <style>
      .frame { fill: #f5f5f5; stroke: #333; stroke-width: 2; }
      .component { fill: white; stroke: #666; stroke-width: 1.5; }
      .component-alt { fill: #f0f0f0; stroke: #666; stroke-width: 1.5; }
      .header { fill: #e8e8e8; stroke: #333; stroke-width: 2; }
      .label { font-family: system-ui, sans-serif; font-size: 10px; fill: #333; }
      .label-bold { font-family: system-ui, sans-serif; font-size: 10px; fill: #333; font-weight: 600; }
      .label-small { font-family: system-ui, sans-serif; font-size: 8px; fill: #666; }
      .section-label { font-family: system-ui, sans-serif; font-size: 11px; fill: #1a1a1a; font-weight: 600; }
      .screen-title { font-family: system-ui, sans-serif; font-size: 14px; fill: #000; font-weight: 700; }
      .icon-placeholder { fill: #ddd; stroke: #999; stroke-width: 1; }
      .green-header { fill: #c8f7c5; stroke: #333; stroke-width: 2; }
      .green-card-header { fill: #d4edda; stroke: #666; stroke-width: 1.5; }
      .time-block-green { fill: #c8f7c5; stroke: #666; stroke-width: 1; }
    </style>
  </defs>
  
  <!-- Screen title -->
  <text x="200" y="20" text-anchor="middle" class="screen-title">RoadTransportScreen</text>
  <text x="200" y="35" text-anchor="middle" class="label-small">mobile/src/screens/transport/RoadTransportScreen.tsx</text>
  
  <!-- Phone frame -->
  <rect x="20" y="50" width="360" height="820" rx="20" class="frame"/>
  
  <!-- Status bar area -->
  <rect x="20" y="50" width="360" height="44" rx="20" fill="#e0e0e0"/>
  <text x="200" y="77" text-anchor="middle" class="label-small">SafeAreaView (top inset)</text>
  
  <!-- GlobalHeader -->
  <g transform="translate(20, 94)">
    <rect x="0" y="0" width="360" height="64" class="header"/>
    <rect x="0" y="60" width="360" height="4" fill="#333"/>
    <rect x="12" y="10" width="44" height="44" class="icon-placeholder"/>
    <text x="34" y="36" text-anchor="middle" class="label-small">←</text>
    <text x="180" y="38" text-anchor="middle" class="label-bold">MOJ VIS</text>
    <rect x="304" y="10" width="44" height="44" class="icon-placeholder"/>
    <text x="326" y="36" text-anchor="middle" class="label-small">✉</text>
  </g>
  <text x="390" y="130" text-anchor="end" class="label">GlobalHeader</text>
  
  <!-- Banner (optional) -->
  <g transform="translate(32, 170)">
    <rect x="0" y="0" width="336" height="36" class="component-alt" stroke-dasharray="4,3"/>
    <text x="168" y="22" text-anchor="middle" class="label">BannerList (optional)</text>
  </g>
  
  <!-- Green Header Slab -->
  <g transform="translate(32, 214)">
    <rect x="0" y="0" width="336" height="80" class="green-header"/>
    <rect x="0" y="76" width="336" height="4" fill="#333"/>
    
    <rect x="12" y="12" width="56" height="56" class="component"/>
    <text x="40" y="44" text-anchor="middle" class="label-small">🚌</text>
    
    <text x="80" y="32" class="label-bold">H1 - Road Transport</text>
    <text x="80" y="50" class="label">Body - Bus lines on Vis island</text>
    <text x="80" y="66" class="label-small">Meta - schedule info</text>
  </g>
  <text x="390" y="254" text-anchor="end" class="label">Header Slab</text>
  <text x="390" y="266" text-anchor="end" class="label-small">secondary (green)</text>
  <text x="390" y="278" text-anchor="end" class="label-small">⚠️ DUPLICATED</text>
  
  <!-- Lines List Section -->
  <g transform="translate(32, 306)">
    <text x="0" y="0" class="section-label">Bus Lines</text>
    
    <!-- Line Card 1 (2-part card) -->
    <g transform="translate(0, 16)">
      <!-- Green header part -->
      <rect x="0" y="0" width="336" height="44" class="green-card-header"/>
      <text x="12" y="18" class="label-bold">Line 1</text>
      <text x="12" y="34" class="label">Vis - Komiža</text>
      <rect x="280" y="8" width="48" height="28" class="icon-placeholder"/>
      <text x="304" y="26" text-anchor="middle" class="label-small">→</text>
      
      <!-- White body part -->
      <rect x="0" y="44" width="336" height="52" class="component"/>
      <rect x="0" y="92" width="336" height="4" fill="#333"/>
      <text x="12" y="62" class="label-small">Today's departures:</text>
      
      <!-- Time blocks -->
      <rect x="12" y="70" width="44" height="20" class="time-block-green"/>
      <text x="34" y="84" text-anchor="middle" class="label-small">07:30</text>
      <rect x="62" y="70" width="44" height="20" class="time-block-green"/>
      <text x="84" y="84" text-anchor="middle" class="label-small">09:00</text>
      <rect x="112" y="70" width="44" height="20" class="time-block-green"/>
      <text x="134" y="84" text-anchor="middle" class="label-small">12:30</text>
      <rect x="162" y="70" width="44" height="20" class="time-block-green"/>
      <text x="184" y="84" text-anchor="middle" class="label-small">15:00</text>
      <text x="220" y="84" class="label-small">...</text>
    </g>
  </g>
  <text x="390" y="370" text-anchor="end" class="label">LineCard</text>
  <text x="390" y="382" text-anchor="end" class="label-small">2-part: header + body</text>
  <text x="390" y="394" text-anchor="end" class="label-small">⚠️ DUPLICATED</text>
  
  <!-- Line Card 2 -->
  <g transform="translate(32, 438)">
    <rect x="0" y="0" width="336" height="44" class="green-card-header"/>
    <text x="12" y="18" class="label-bold">Line 2</text>
    <text x="12" y="34" class="label">Vis - Podselje - Vis</text>
    <rect x="280" y="8" width="48" height="28" class="icon-placeholder"/>
    
    <rect x="0" y="44" width="336" height="52" class="component"/>
    <rect x="0" y="92" width="336" height="4" fill="#333"/>
    <text x="12" y="62" class="label-small">Today's departures:</text>
    
    <rect x="12" y="70" width="44" height="20" class="time-block-green"/>
    <text x="34" y="84" text-anchor="middle" class="label-small">08:00</text>
    <rect x="62" y="70" width="44" height="20" class="time-block-green"/>
    <text x="84" y="84" text-anchor="middle" class="label-small">14:00</text>
  </g>
  
  <!-- Line Card 3 -->
  <g transform="translate(32, 546)">
    <rect x="0" y="0" width="336" height="44" class="green-card-header"/>
    <text x="12" y="18" class="label-bold">Line 3</text>
    <text x="12" y="34" class="label">Komiža - Vis</text>
    <rect x="280" y="8" width="48" height="28" class="icon-placeholder"/>
    
    <rect x="0" y="44" width="336" height="52" class="component"/>
    <rect x="0" y="92" width="336" height="4" fill="#333"/>
    <text x="12" y="62" class="label-small">Today's departures:</text>
    
    <rect x="12" y="70" width="44" height="20" class="time-block-green"/>
    <text x="34" y="84" text-anchor="middle" class="label-small">06:45</text>
    <rect x="62" y="70" width="44" height="20" class="time-block-green"/>
    <text x="84" y="84" text-anchor="middle" class="label-small">11:00</text>
    <rect x="112" y="70" width="44" height="20" class="time-block-green"/>
    <text x="134" y="84" text-anchor="middle" class="label-small">16:30</text>
  </g>
  
  <!-- Today's Departures Section -->
  <g transform="translate(32, 666)">
    <text x="0" y="0" class="section-label">Today's Departures (All Lines)</text>
    
    <rect x="0" y="16" width="336" height="80" fill="none" stroke="#ccc" stroke-width="1" stroke-dasharray="4,3"/>
    <text x="168" y="50" text-anchor="middle" class="label-small" fill="#999">Chronological list of all departures</text>
    <text x="168" y="66" text-anchor="middle" class="label-small" fill="#999">formatTime() helper</text>
  </g>
  <text x="390" y="716" text-anchor="end" class="label">list.* tokens</text>
  
  <!-- Bottom safe area -->
  <rect x="20" y="810" width="360" height="60" rx="20" fill="#e0e0e0"/>
  <text x="200" y="845" text-anchor="middle" class="label-small">SafeAreaView (bottom inset)</text>
  
  <!-- Notes -->
  <text x="20" y="890" class="label-small">Layout: Banner → Green Header Slab → Lines List (2-part cards) → Today's Departures</text>
</svg>
