<?xml version="1.0" encoding="utf-8"?>
<!-- Generator: Adobe Illustrator 28.1.0, SVG Export Plug-In . SVG Version: 6.00 Build 0)  -->
<svg version="1.1" id="Layer_1" xmlns="http://www.w3.org/2000/svg" xmlns:xlink="http://www.w3.org/1999/xlink" x="0px" y="0px"
	 viewBox="0 0 595.28 595.28" style="enable-background:new 0 0 595.28 595.28;" xml:space="preserve">
<style type="text/css">
	.st0{fill:#399FD9;}
	.st1{fill:#231F20;stroke:#231F20;stroke-width:10;stroke-miterlimit:10;}
	.st2{fill:#24B34B;stroke:#000000;stroke-width:10;stroke-miterlimit:10;}
	.st3{fill:#FFFFFF;stroke:#231F20;stroke-width:10;stroke-miterlimit:10;}
	.st4{fill:#FFFFFF;}
</style>
<rect x="0.22" y="0.1" class="st0" width="595.05" height="595.05"/>
<polygon class="st1" points="504.49,365.31 174.86,365.31 102.22,475.89 102.22,114.15 504.49,114.15 "/>
<polygon class="st2" points="494.61,355.43 164.98,355.43 92.33,466 92.33,104.26 494.61,104.26 "/>
<g>
	<path class="st3" d="M392.56,171.18c-7.36-8.26-18.76,5.99-27.83,8.02c6.48,8.84-2.6,18.49-12.22,18.74
		c-3.49,0.85-15.07-3.97-8.75-6.53c8.72,2.05,2.45-7.93,9-8.94c7.98-2.45,17.15-16.9,4.54-19.15c-4.2,3.5-9.04,1.47-14.08,1.77
		c4.35-12.27-6.84-12.23-15.92-10.65c-8.06,7.13-20.54-2.21-30.48,3.69c-32.63-3.37-31.77,17.08-36.19,6.85
		c-0.22-9.22-5.62-4.86-6.89,0.95c-17.19-7.77-41.1,5.89-58.91,9.38c-3.7-1.07-5.48,0.23-6.42,3.81
		c-6.91,14.2-34.03,11.28-39.52,26.85c4.07,4.95,9.71,5.08,13.11,11.35c-5.4,5.69,3.22,5.75,4.25,10.77
		c3.78,7.89,14.41-4.51,19.36-6.79c19.3-11.08,23.17,26.06,22.35,38.61c2.27,15.02-52.27,32.55-31.63,39.82
		c4.73,6.22,8.11-2.51,13.95-0.7c7.29,5.42,11,7.08,19.21,2.33c8.35,0.14,16.35,0.93,24.08-2.67c1.54,6.43,3,6.92,7.89,3.13
		c17.9-14.88,36.69-6.94,55.43-20.31c-0.03,10.05,9.95,6.31,12.15-2.01c2.44,5.88,6.54,3.98,9.81,4.7c5.02,1.01,2.44-5.84,3.04-8.66
		c4.05,4.66,6.27,4.18,9.94-0.51c2.39,5.48,4.98,0.56,8.61-1.94c-1.93,9.42,5.3,7.19,11.84,6.42c7.72-0.61,4.04-6.37,5.03-12.05
		c3.9,2.87,3.36,9.84,9.84,6.72c0.2,3.6-1.19,7.04,2.91,8.92c2.84,1.36,16.02-3.91,12.21-7.13c-5.38-2.37-1.79-6.02-2.04-8.66
		c4.2,1.4,9.98,5.15,13.02,1.03c1.53-18.64,16.96-8.72,12.03-19.76c-1.94-18.11,28.47-22.99,37.21-46.79
		c7.57-9.46-8.71-5.63-0.73-13.78c6.22-7.32-8.87-4.26-3.22-10.13c3.18-7.24-3.44-6.5-8.3-5.78c-5.2-2.73-10.89,18.94-8.88,3.28
		c3.85-13.97-6.63-14.23-16.23-6.66C401.62,175.19,396.89,162.68,392.56,171.18z"/>
</g>
<g>
	<path class="st4" d="M191.8,459.76c0.69-2.05,1.4-4.1,2.07-6.16c2.62-8,5.21-16.01,7.85-24c0.98-2.97,1.03-2.95,4.17-2.96
		c7.02,0,14.04,0.02,21.05-0.04c1.35-0.01,1.8,0.34,1.8,1.75c-0.05,17.86-0.05,35.72,0,53.58c0,1.56-0.51,1.93-1.98,1.9
		c-4.66-0.08-9.32-0.08-13.98,0c-1.43,0.03-1.9-0.35-1.88-1.82c0.21-11.57,0.35-23.14,0.51-34.71c0-0.05-0.04-0.1-0.22-0.56
		c-0.82,2.47-1.56,4.61-2.25,6.77c-3.02,9.46-6.06,18.92-9.02,28.4c-0.48,1.53-1.25,1.98-2.81,1.93c-3.82-0.12-7.65-0.07-11.47-0.01
		c-1.12,0.02-1.68-0.34-2.04-1.43c-3.46-10.42-6.96-20.82-10.45-31.23c-0.42-1.26-0.84-2.53-1.65-3.75c0,0.85-0.01,1.7,0,2.55
		c0.11,10.63,0.2,21.26,0.36,31.89c0.02,1.46-0.33,2.02-1.9,1.98c-4.66-0.1-9.32-0.03-13.98-0.04c-0.46,0-0.93-0.04-1.54-0.08
		c-0.04-0.69-0.1-1.3-0.1-1.91c0-17.7,0-35.41,0.01-53.11c0-2.05,0.01-2.06,2.06-2.06c7.54-0.01,15.08,0.01,22.62-0.04
		c1.21-0.01,1.74,0.4,2.11,1.54c3.18,9.96,6.41,19.91,9.64,29.85c0.19,0.58,0.44,1.15,0.67,1.72
		C191.56,459.72,191.68,459.74,191.8,459.76z"/>
	<path class="st4" d="M265.84,485.34c-6.89-0.28-13.42-1.55-19.22-5.31c-6.6-4.29-10.27-10.55-11.57-18.26
		c-1.05-6.25-0.85-12.45,1.33-18.43c2.9-7.93,8.62-13.16,16.54-15.82c10.09-3.39,20.12-3.24,29.71,1.73
		c8.24,4.28,12.89,11.17,14,20.47c0.83,6.96,0.33,13.7-2.8,20.07c-3.72,7.54-9.89,12.05-17.95,13.96
		C272.59,484.53,269.19,484.82,265.84,485.34z M252.87,455.25c0.09,0.02,0.19,0.04,0.28,0.06c0.05,1.04,0.08,2.09,0.17,3.13
		c0.57,6.33,4.29,10.67,10.08,11.8c6.43,1.25,12.02-1.9,13.86-7.89c1.46-4.73,1.41-9.5-0.05-14.22c-1.56-5.07-5.45-8.04-10.75-8.33
		c-5.9-0.33-10.32,2.51-12.13,8.12C253.57,450.28,253.34,452.8,252.87,455.25z"/>
	<path class="st4" d="M351.07,446.45c0,6.07,0.32,12.16-0.08,18.21c-0.51,7.83-3.88,14.19-11.29,17.75
		c-3.58,1.72-7.46,2.44-11.41,2.58c-5.91,0.21-11.71-0.24-17.06-3.17c-5.48-2.99-8.64-7.69-9.8-13.67
		c-0.57-2.95-0.53-6.03-0.79-9.05c-0.1-1.12,0.29-1.59,1.49-1.58c4.92,0.02,9.84,0,14.76-0.09c1.31-0.02,1.55,0.51,1.58,1.67
		c0.05,1.98,0.04,4.01,0.52,5.91c1.21,4.87,4.7,6.23,9.31,5.16c2.86-0.67,3.47-3.4,3.99-5.88c0.25-1.17,0.28-2.39,0.29-3.59
		c0.02-10.52,0.01-21.05,0.02-31.57c0-2.51,0.02-2.51,2.47-2.51c4.82,0,9.63,0.05,14.45-0.03c1.41-0.02,1.77,0.44,1.76,1.79
		c-0.06,6.02-0.03,12.04-0.03,18.06C351.19,446.45,351.13,446.45,351.07,446.45z"/>
</g>
<g>
	<path d="M457.33,464.61c2.57,0,5.13-0.04,7.7,0.03c0.46,0.01,1.25,0.39,1.3,0.71c0.77,4.48,3.95,6.17,7.92,6.5
		c2.72,0.22,5.52-0.06,8.25-0.41c1.57-0.2,2.91-1.17,3.41-2.89c0.46-1.6-0.17-3.18-1.61-4.03c-3.02-1.77-6.43-2.15-9.78-2.64
		c-5.29-0.77-10.54-1.65-15.52-3.72c-6.25-2.6-9.45-7.58-9.4-14.36c0.06-7.17,3.39-12.28,9.84-15.07
		c10.83-4.68,21.91-4.68,32.86-0.43c6.4,2.49,9.72,7.65,10.82,14.34c0.2,1.23-0.03,1.84-1.47,1.83c-4.87-0.06-9.74,0.01-14.61-0.06
		c-0.51-0.01-1.39-0.49-1.46-0.88c-0.53-2.89-2.48-4.29-5.08-4.93c-3.21-0.79-6.44-0.76-9.6,0.31c-1.96,0.67-2.95,1.89-2.97,3.43
		c-0.02,1.7,0.85,3.05,2.93,3.58c3.28,0.84,6.63,1.47,9.97,2.03c5.42,0.9,10.89,1.5,15.84,4.19c4.63,2.52,7.26,6.29,7.72,11.6
		c0.85,9.83-3.8,16.84-13.32,19.43c-10.76,2.93-21.48,2.69-31.86-1.6c-6.72-2.77-10-8.25-10.92-15.3c-0.18-1.34,0.37-1.73,1.66-1.69
		C452.41,464.67,454.87,464.61,457.33,464.61C457.33,464.61,457.33,464.61,457.33,464.61z"/>
	<path d="M420.75,426.9c-0.88,2.34-1.72,4.62-2.59,6.9c-5.72,15.05-11.45,30.09-17.17,45.14c-0.46,1.22-0.8,2.5-1.38,3.66
		c-0.26,0.52-0.98,1.14-1.5,1.15c-6.28,0.08-12.57,0.04-18.85,0.08c-0.95,0-1.4-0.41-1.72-1.25c-2.05-5.43-4.13-10.84-6.2-16.26
		c-4.78-12.5-9.55-24.99-14.33-37.49c-0.22-0.58-0.39-1.18-0.66-2c0.73-0.08,1.32-0.19,1.91-0.19c5.24-0.02,10.47,0.04,15.71-0.05
		c1.47-0.03,2.14,0.46,2.58,1.83c2.83,8.86,5.73,17.7,8.62,26.55c1.12,3.42,2.25,6.84,3.54,10.76c0.5-1.38,0.87-2.32,1.19-3.28
		c3.78-11.58,7.55-23.16,11.37-34.72c0.15-0.45,0.84-1.01,1.29-1.02c5.81-0.07,11.62-0.05,17.43-0.04
		C420.18,426.66,420.37,426.77,420.75,426.9z"/>
	<path d="M424.42,455.12c0-8.9,0.03-17.8-0.03-26.69c-0.01-1.48,0.48-1.85,1.89-1.83c4.97,0.08,9.94,0.08,14.92,0.01
		c1.33-0.02,1.66,0.44,1.66,1.72c-0.03,17.9-0.03,35.8,0.01,53.7c0,1.31-0.28,1.85-1.72,1.82c-5.02-0.09-10.05-0.08-15.07-0.02
		c-1.3,0.02-1.7-0.39-1.69-1.7c0.05-9,0.03-18.01,0.03-27.01C424.41,455.12,424.41,455.12,424.42,455.12z"/>
</g>
</svg>
