<?xml version="1.0" encoding="utf-8"?>
<!-- Generator: Adobe Illustrator 28.1.0, SVG Export Plug-In . SVG Version: 6.00 Build 0)  -->
<svg version="1.1" id="Layer_1" xmlns="http://www.w3.org/2000/svg" xmlns:xlink="http://www.w3.org/1999/xlink" x="0px" y="0px"
	 viewBox="0 0 595.28 595.28" style="enable-background:new 0 0 595.28 595.28;" xml:space="preserve">
<style type="text/css">
	.st0{fill:#399FD9;}
	.st1{fill:#231F20;stroke:#231F20;stroke-width:10;stroke-miterlimit:10;}
	.st2{fill:#24B34B;stroke:#000000;stroke-width:10;stroke-miterlimit:10;}
	.st3{fill:#FFFFFF;stroke:#231F20;stroke-width:10;stroke-miterlimit:10;}
	.st4{fill:#FFFFFF;}
</style>
<rect x="0.22" y="0.1" class="st0" width="595.05" height="595.05"/>
<polygon class="st1" points="504.49,365.31 174.86,365.31 102.22,475.89 102.22,114.15 504.49,114.15 "/>
<polygon class="st2" points="494.61,355.43 164.98,355.43 92.33,466 92.33,104.26 494.61,104.26 "/>
<g>
	<path class="st3" d="M392.56,171.18c-7.36-8.26-18.76,5.99-27.83,8.02c6.48,8.84-2.6,18.49-12.22,18.74
		c-3.49,0.85-15.07-3.97-8.75-6.53c8.72,2.05,2.45-7.93,9-8.94c7.98-2.45,17.15-16.9,4.54-19.15c-4.2,3.5-9.04,1.47-14.08,1.77
		c4.35-12.27-6.84-12.23-15.92-10.65c-8.06,7.13-20.54-2.21-30.48,3.69c-32.63-3.37-31.77,17.08-36.19,6.85
		c-0.22-9.22-5.62-4.86-6.89,0.95c-17.19-7.77-41.1,5.89-58.91,9.38c-3.7-1.07-5.48,0.23-6.42,3.81
		c-6.91,14.2-34.03,11.28-39.52,26.85c4.07,4.95,9.71,5.08,13.11,11.35c-5.4,5.69,3.22,5.75,4.25,10.77
		c3.78,7.89,14.41-4.51,19.36-6.79c19.3-11.08,23.17,26.06,22.35,38.61c2.27,15.02-52.27,32.55-31.63,39.82
		c4.73,6.22,8.11-2.51,13.95-0.7c7.29,5.42,11,7.08,19.21,2.33c8.35,0.14,16.35,0.93,24.08-2.67c1.54,6.43,3,6.92,7.89,3.13
		c17.9-14.88,36.69-6.94,55.43-20.31c-0.03,10.05,9.95,6.31,12.15-2.01c2.44,5.88,6.54,3.98,9.81,4.7c5.02,1.01,2.44-5.84,3.04-8.66
		c4.05,4.66,6.27,4.18,9.94-0.51c2.39,5.48,4.98,0.56,8.61-1.94c-1.93,9.42,5.3,7.19,11.84,6.42c7.72-0.61,4.04-6.37,5.03-12.05
		c3.9,2.87,3.36,9.84,9.84,6.72c0.2,3.6-1.19,7.04,2.91,8.92c2.84,1.36,16.02-3.91,12.21-7.13c-5.38-2.37-1.79-6.02-2.04-8.66
		c4.2,1.4,9.98,5.15,13.02,1.03c1.53-18.64,16.96-8.72,12.03-19.76c-1.94-18.11,28.47-22.99,37.21-46.79
		c7.57-9.46-8.71-5.63-0.73-13.78c6.22-7.32-8.87-4.26-3.22-10.13c3.18-7.24-3.44-6.5-8.3-5.78c-5.2-2.73-10.89,18.94-8.88,3.28
		c3.85-13.97-6.63-14.23-16.23-6.66C401.62,175.19,396.89,162.68,392.56,171.18z"/>
</g>
<g>
	<path class="st4" d="M213.85,461.56c0.64-1.91,1.3-3.81,1.93-5.73c2.43-7.44,4.84-14.88,7.3-22.31c0.91-2.76,0.96-2.75,3.87-2.75
		c6.52,0,13.05,0.02,19.57-0.03c1.25-0.01,1.67,0.31,1.67,1.63c-0.04,16.6-0.05,33.2,0,49.8c0,1.45-0.47,1.79-1.84,1.77
		c-4.33-0.08-8.67-0.08-13,0c-1.33,0.02-1.77-0.33-1.74-1.7c0.2-10.75,0.33-21.51,0.48-32.26c0-0.05-0.03-0.09-0.2-0.52
		c-0.76,2.29-1.45,4.28-2.09,6.29c-2.81,8.79-5.64,17.58-8.39,26.4c-0.44,1.42-1.16,1.84-2.61,1.79c-3.55-0.11-7.11-0.06-10.66-0.01
		c-1.04,0.02-1.56-0.32-1.9-1.33c-3.21-9.69-6.47-19.36-9.72-29.03c-0.39-1.17-0.78-2.35-1.53-3.48c0,0.79-0.01,1.58,0,2.37
		c0.1,9.88,0.18,19.76,0.33,29.64c0.02,1.36-0.31,1.87-1.77,1.84c-4.33-0.09-8.66-0.03-13-0.04c-0.43,0-0.86-0.04-1.43-0.07
		c-0.03-0.64-0.09-1.21-0.09-1.78c0-16.45,0-32.91,0.01-49.36c0-1.9,0.01-1.91,1.91-1.91c7.01-0.01,14.02,0.01,21.03-0.04
		c1.12-0.01,1.62,0.37,1.96,1.43c2.95,9.26,5.96,18.5,8.96,27.75c0.18,0.54,0.41,1.07,0.62,1.6
		C213.63,461.53,213.74,461.54,213.85,461.56z"/>
	<path class="st4" d="M282.67,485.34c-6.4-0.26-12.48-1.44-17.86-4.94c-6.14-3.98-9.55-9.81-10.75-16.97
		c-0.98-5.81-0.79-11.57,1.24-17.13c2.7-7.37,8.01-12.23,15.37-14.71c9.38-3.15,18.7-3.02,27.61,1.61
		c7.66,3.98,11.98,10.39,13.01,19.03c0.77,6.47,0.31,12.73-2.61,18.65c-3.45,7.01-9.2,11.2-16.68,12.98
		C288.95,484.59,285.78,484.86,282.67,485.34z M270.61,457.37c0.09,0.02,0.17,0.04,0.26,0.06c0.05,0.97,0.07,1.95,0.16,2.91
		c0.53,5.88,3.99,9.92,9.37,10.97c5.98,1.17,11.17-1.76,12.89-7.33c1.36-4.4,1.31-8.83-0.05-13.22c-1.45-4.71-5.07-7.47-9.99-7.75
		c-5.49-0.31-9.6,2.33-11.28,7.54C271.27,452.75,271.05,455.1,270.61,457.37z"/>
	<path class="st4" d="M361.89,449.19c0,5.64,0.29,11.3-0.07,16.92c-0.47,7.28-3.61,13.19-10.5,16.5c-3.33,1.6-6.93,2.27-10.6,2.4
		c-5.49,0.2-10.88-0.23-15.86-2.94c-5.1-2.78-8.03-7.14-9.11-12.71c-0.53-2.75-0.5-5.6-0.74-8.41c-0.09-1.04,0.27-1.48,1.39-1.47
		c4.57,0.02,9.15,0,13.72-0.08c1.21-0.02,1.44,0.47,1.47,1.55c0.05,1.84,0.04,3.73,0.48,5.49c1.13,4.52,4.36,5.79,8.65,4.79
		c2.66-0.62,3.22-3.16,3.71-5.47c0.23-1.08,0.26-2.22,0.27-3.34c0.02-9.78,0.01-19.56,0.02-29.34c0-2.33,0.02-2.33,2.3-2.33
		c4.48,0,8.95,0.05,13.43-0.03c1.31-0.02,1.65,0.41,1.63,1.67c-0.06,5.6-0.03,11.19-0.03,16.79
		C362,449.19,361.95,449.19,361.89,449.19z"/>
</g>
<g>
	<path d="M460.66,466.07c2.39,0,4.77-0.03,7.15,0.03c0.42,0.01,1.16,0.37,1.21,0.66c0.72,4.16,3.67,5.73,7.37,6.04
		c2.53,0.21,5.13-0.05,7.67-0.38c1.46-0.19,2.71-1.09,3.17-2.68c0.43-1.48-0.16-2.95-1.5-3.74c-2.8-1.65-5.98-2-9.09-2.45
		c-4.92-0.72-9.8-1.53-14.42-3.46c-5.81-2.42-8.78-7.04-8.73-13.35c0.05-6.66,3.15-11.42,9.14-14c10.07-4.35,20.37-4.35,30.54-0.4
		c5.95,2.31,9.04,7.11,10.06,13.32c0.19,1.14-0.02,1.71-1.36,1.7c-4.53-0.06-9.05,0-13.58-0.06c-0.47-0.01-1.29-0.46-1.35-0.81
		c-0.5-2.69-2.31-3.98-4.72-4.58c-2.98-0.73-5.99-0.71-8.92,0.29c-1.82,0.62-2.75,1.76-2.76,3.19c-0.02,1.58,0.79,2.83,2.73,3.33
		c3.05,0.78,6.16,1.36,9.27,1.88c5.03,0.84,10.12,1.39,14.72,3.9c4.3,2.34,6.75,5.85,7.17,10.78c0.79,9.13-3.53,15.65-12.38,18.06
		c-10,2.72-19.96,2.5-29.62-1.48c-6.25-2.58-9.29-7.67-10.15-14.23c-0.16-1.25,0.35-1.61,1.54-1.57
		C456.08,466.12,458.37,466.07,460.66,466.07C460.66,466.07,460.66,466.07,460.66,466.07z"/>
	<path d="M426.66,431.02c-0.82,2.17-1.6,4.3-2.41,6.41c-5.32,13.99-10.64,27.97-15.96,41.96c-0.43,1.14-0.74,2.33-1.28,3.41
		c-0.24,0.48-0.91,1.06-1.39,1.07c-5.84,0.08-11.68,0.04-17.52,0.07c-0.88,0-1.3-0.38-1.6-1.16c-1.9-5.04-3.84-10.08-5.76-15.11
		c-4.44-11.62-8.88-23.23-13.32-34.85c-0.21-0.54-0.36-1.1-0.62-1.86c0.68-0.07,1.23-0.17,1.77-0.18c4.87-0.02,9.73,0.04,14.6-0.05
		c1.37-0.03,1.99,0.43,2.4,1.7c2.63,8.24,5.33,16.45,8.01,24.68c1.04,3.18,2.09,6.36,3.29,10c0.47-1.28,0.81-2.15,1.1-3.04
		c3.52-10.76,7.01-21.52,10.57-32.27c0.14-0.42,0.78-0.94,1.2-0.95c5.4-0.07,10.8-0.05,16.21-0.04
		C426.12,430.79,426.3,430.9,426.66,431.02z"/>
	<path d="M430.07,457.25c0-8.27,0.03-16.54-0.03-24.81c-0.01-1.38,0.45-1.72,1.76-1.7c4.62,0.07,9.24,0.07,13.86,0.01
		c1.24-0.02,1.54,0.41,1.54,1.59c-0.03,16.64-0.03,33.28,0.01,49.92c0,1.22-0.26,1.72-1.6,1.7c-4.67-0.08-9.34-0.07-14.01-0.02
		c-1.21,0.01-1.58-0.36-1.57-1.58c0.05-8.37,0.02-16.74,0.02-25.1C430.05,457.25,430.06,457.25,430.07,457.25z"/>
</g>
</svg>
